<svg xmlns="http://www.w3.org/2000/svg" viewBox="0 0 1024 1024"><defs><style>.a47202ec-30e5-411a-ba94-6c0b2701aa76{fill:#454c50;}</style></defs><g id="ffbf540a-016e-4945-8bf3-a0085097d702" data-name="レイヤー 1"><path class="a47202ec-30e5-411a-ba94-6c0b2701aa76" d="M512.09967,20q19.20548,0,38.21674,1.49857-18.78251-1.45988-37.826-1.46674-13.10313,0-26.30054.70679c-8.68463.44529-17.34888,1.12311-25.92648,2.02071A488.05462,488.05462,0,0,1,512.09967,20m.39075.03183q19.033,0,37.826,1.46674,13.49148,1.06017,26.8551,2.85692a490.04252,490.04252,0,0,0-64.572-4.26249c-.19464,0-.40607.00015-.60074.00037-.1947-.00024-.40369-.00037-.59833-.00037q-12.67606,0-25.2106.64562,13.19425-.70906,26.30054-.70679m.10913.06117a490.04252,490.04252,0,0,1,64.572,4.26249Q590.82606,26.191,604.33,28.78476a493.0539,493.0539,0,0,0-63.84058-7.84061q-8.36013-.49017-16.72711-.69622-5.88987-.14743-11.76352-.15454c.19467-.00022.4061-.00037.60074-.00037m-.60074.00037c-.77875.00089-1.53183.00364-2.31122.00822.77939-.00458,1.53247-.00733,2.31122-.00822m-.40311.00453c4.05072,0,8.11994.05021,12.16663.15q6.86755.1719,13.75775.53554c-5.43561-.27768-10.91309-.46787-16.39386-.56766-3.08838-.05787-6.19549-.08713-9.28491-.08713q-11.45838,0-22.92935.53171,10.42624-.49925,20.77563-.55878c.63153-.00239,1.27664-.00369,1.90811-.00369m-1.90811.00369q-10.3515.06085-20.77563.55878-8.089.37512-16.15271,1.01492c-4.12763.32595-8.25794.70418-12.35627,1.13142,6.48554-.69175,12.97858-1.25425,19.44034-1.68566q14.92892-.96313,29.84427-1.01946m2.15372.02707c3.08942,0,6.19653.02926,9.28491.08713q-4.5564-.083-9.12622-.083-13.03207,0-25.89633.67c.93307-.04995,1.876-.09783,2.80829-.14246q11.45361-.53116,22.92935-.53171M512,20.13283q4.57617,0,9.12622.083,16.57124.31048,33.06757,1.72849c3.07592.26585,6.13684.55894,9.22039.883,2.70423.28423,5.39289.58888,8.08216.91573A490.40673,490.40673,0,0,1,760.98608,87.807q20.23628,11.88561,39.27527,25.64606a495.2634,495.2634,0,0,1,45.13715,36.91q13.35242,12.31662,25.77411,25.58631c2.13086,2.27935,4.259,4.59854,6.35589,6.9273q3.112,3.4562,6.14423,6.952Q894.48035,202.303,904.44,215.47708q2.77571,3.67621,5.48883,7.41058,11.63626,16.016,21.79688,32.61985,11.49856,18.78483,21.31677,38.60019a495.93426,495.93426,0,0,1,26.751,65.897q3.99636,12.29961,7.31244,24.63968,3.31283,12.39968,6.01269,25.09064,2.6889,12.65,4.69977,25.28717,1.99356,12.65422,3.35425,25.56369,1.35442,12.88646,2.03259,25.6744.65991,12.79331.66193,25.73975c0,3.08392-.02863,6.17255-.08515,9.243q-.31385,16.502-1.72772,32.96814c-.26471,3.05951-.55932,6.136-.88165,9.20306-.32062,3.05054-.66687,6.07837-1.04169,9.10975A491.85453,491.85453,0,0,1,877.46643,841.19855q-14.0766,15.6189-29.42627,29.98388-3.419,3.19629-6.91681,6.34607-6.61669,5.95772-13.399,11.64167-6.187,5.1774-12.5564,10.16479-6.90133,5.39428-14.05567,10.59387A497.5705,497.5705,0,0,1,759.022,937.38367q-13.59842,7.90978-27.737,14.97107a495.927,495.927,0,0,1-67.28967,27.43878q-12.20508,3.96561-24.45618,7.26343-12.49236,3.34285-25.27417,6.0617-12.6013,2.67857-25.18859,4.68427c-8.468,1.33575-17.03827,2.46332-25.66224,3.36975q-12.81234,1.34664-25.525,2.02484-12.866.66752-25.88916.66968-4.62588,0-9.23923-.08509-16.43289-.31246-32.8237-1.71508c-3.10873-.26813-6.23474-.56678-9.35122-.89435-2.68778-.28247-5.37577-.587-8.04871-.91168a490.40614,490.40614,0,0,1-189.55893-64.08893q-20.15563-11.84079-39.114-25.53443a494.57631,494.57631,0,0,1-45.35659-37.08734Q165.20939,861.27682,152.823,848.046q-3.19629-3.419-6.35148-6.92261c-2.09684-2.32879-4.15364-4.65631-6.19779-7.01379q-10.83663-12.51022-20.80426-25.70642-2.73-3.61789-5.39845-7.29084Q102.4932,785.17683,92.3652,768.641q-11.55374-18.859-21.39453-38.722A495.67584,495.67584,0,0,1,44.2065,663.99536q-3.99639-12.29966-7.31194-24.63782-3.31285-12.39972-6.01323-25.09253-2.68884-12.65-4.69966-25.28674-1.99356-12.65424-3.35434-25.56409-1.35443-12.8865-2.032-25.664Q20.13538,524.95688,20.13283,512q0-4.57617.08305-9.13043.31179-16.6404,1.7409-33.209c.2625-3.0267.55166-6.04071.87055-9.07473.32063-3.05057.67135-6.11478,1.04618-9.14618A491.85477,491.85477,0,0,1,146.48482,182.85551q14.09065-15.63732,29.47-30.03327,3.419-3.19629,6.92181-6.35074,6.67212-6.00757,13.49707-11.72388,6.15306-5.14606,12.48441-10.1031,6.90129-5.3943,14.02952-10.57352a497.33844,497.33844,0,0,1,42.03791-27.42429q13.61687-7.92393,27.74392-14.97883A495.95047,495.95047,0,0,1,360.00467,44.2065q12.205-3.96564,24.45822-7.264,12.49237-3.34292,25.2721-6.06119,12.60135-2.67851,25.18866-4.68426c8.46792-1.33576,17.03823-2.46332,25.6622-3.36974q12.81225-1.34662,25.51782-2.02448,12.86595-.66748,25.89633-.67m-6.51868,5.91184V49.3555a6.51868,6.51868,0,0,0,13.03736,0V26.04467H505.48132m54.88617,32.3644a6.5195,6.5195,0,0,0,6.475-5.8379l2.43646-23.183-12.96582-1.36284L553.87665,51.2085a6.51862,6.51862,0,0,0,5.80151,7.16433,6.59546,6.59546,0,0,0,.68933.03624m-96.735,0a6.59,6.59,0,0,0,.68933-.03624,6.5186,6.5186,0,0,0,5.80148-7.16433l-2.43664-23.18317L454.721,29.38817l2.43649,23.183a6.5198,6.5198,0,0,0,6.475,5.8379M608.1958,65.98528a6.52048,6.52048,0,0,0,6.36951-5.16461L619.412,38.01933l-12.75232-2.71066L601.813,58.11a6.52452,6.52452,0,0,0,6.38281,7.87528m-192.39157,0A6.52454,6.52454,0,0,0,422.187,58.11l-4.84668-22.80133L404.588,38.01933l4.84665,22.80134a6.521,6.521,0,0,0,6.36957,5.16461m239.16214,12.534a6.52141,6.52141,0,0,0,6.1983-4.50612L668.368,51.84333l-12.39917-4.02866L648.7655,69.9845a6.52349,6.52349,0,0,0,6.20087,8.53479m-285.93271,0a6.52346,6.52346,0,0,0,6.20084-8.53479l-7.20334-22.16983L355.632,51.84333l7.20334,22.16984a6.52185,6.52185,0,0,0,6.19833,4.50612M700.17084,95.87336a6.51966,6.51966,0,0,0,5.95868-3.86886l9.48132-21.2955-11.91-5.30267-9.48133,21.29551a6.52191,6.52191,0,0,0,5.95136,9.17152m-376.34183,0a6.52192,6.52192,0,0,0,5.95148-9.17155l-9.48133-21.29551-11.91,5.30267,9.48135,21.2955a6.52,6.52,0,0,0,5.9585,3.86889M743.31622,117.8578a6.516,6.516,0,0,0,5.65143-3.26046L760.623,94.40967,749.33234,87.891,737.677,108.07867a6.52046,6.52046,0,0,0,5.63922,9.77913m-462.63244,0a6.52046,6.52046,0,0,0,5.63922-9.77913L274.66766,87.891,263.377,94.40967l11.65531,20.18767a6.51657,6.51657,0,0,0,5.65146,3.26046M780.104,142.98633h.00019a6.51724,6.51724,0,0,0,9.10516-1.44216L802.911,122.6855l-10.54736-7.66317L778.662,133.88116a6.51858,6.51858,0,0,0,1.442,9.10517m-540.0343,1.24545a6.51928,6.51928,0,0,0,5.2683-10.35062l-13.70166-18.85883L221.089,122.6855l13.70166,18.85867a6.51019,6.51019,0,0,0,5.279,2.68761m581.4978,30.475a6.50171,6.50171,0,0,0,4.8465-2.15692l15.59784-17.32317L832.3233,146.503l-15.598,17.32333a6.51867,6.51867,0,0,0,4.84216,10.88042m-619.1351,0a6.51869,6.51869,0,0,0,4.84227-10.88042l-15.598-17.32333-9.68851,8.72366L197.586,172.54984a6.50226,6.50226,0,0,0,4.8464,2.15692M855.814,208.9491a6.49411,6.49411,0,0,0,4.35962-1.67443l17.32336-15.598-8.72369-9.68851L851.45,197.586a6.51883,6.51883,0,0,0,4.364,11.3631m-687.62809,0a6.51868,6.51868,0,0,0,4.3639-11.36293l-17.32317-15.598-8.72366,9.68851,17.32333,15.598a6.49494,6.49494,0,0,0,4.3596,1.67443m718.10678,37.63435a6.48833,6.48833,0,0,0,3.82612-1.24545l18.85882-13.70166L901.31451,221.089l-18.85882,13.70166a6.51908,6.51908,0,0,0,3.837,11.79279m-748.58537,0a6.519,6.519,0,0,0,3.83682-11.79279L122.6855,221.089l-7.66317,10.54734L133.88116,245.338a6.48946,6.48946,0,0,0,3.82619,1.24545m774.96074,40.61394a6.48858,6.48858,0,0,0,3.25324-.87439L936.109,274.66766,929.59033,263.377l-20.18768,11.65531a6.51945,6.51945,0,0,0,3.26544,12.16507m-801.33616,0a6.51935,6.51935,0,0,0,3.26541-12.16489L94.40967,263.377,87.891,274.66766,108.07867,286.323a6.48974,6.48974,0,0,0,3.25326.87439M934.65045,330.3457a6.49554,6.49554,0,0,0,2.64771-.56521l21.29553-9.48133-5.30286-11.91-21.29535,9.48135a6.51965,6.51965,0,0,0,2.655,12.47519m-845.30093,0a6.51964,6.51964,0,0,0,2.655-12.47519L70.709,308.38916l-5.30267,11.91,21.29551,9.48133a6.4968,6.4968,0,0,0,2.64768.56521m862.65017,45.20963a6.51258,6.51258,0,0,0,2.01581-.32083l22.16986-7.20334L972.15668,355.632l-22.16986,7.20334a6.5197,6.5197,0,0,0,2.01287,12.72m-879.99941,0a6.51969,6.51969,0,0,0,2.01289-12.72L51.84333,355.632l-4.02866,12.39917L69.9845,375.2345a6.51465,6.51465,0,0,0,2.01578.32083m892.528,46.77545A6.54506,6.54506,0,0,0,965.89,422.187l22.80134-4.84668-2.7107-12.75232-22.80133,4.84665a6.51938,6.51938,0,0,0,1.34894,12.89612m-905.0565,0a6.52085,6.52085,0,0,0,6.36974-5.16461V417.166a6.5185,6.5185,0,0,0-5.02083-7.73133L38.01933,404.588l-2.71066,12.75232L58.11,422.187a6.54676,6.54676,0,0,0,1.36176.14377m906.1193,41.30408a6.59744,6.59744,0,0,0,.03626.687,6.5194,6.5194,0,0,0,6.47479,5.83774,6.59006,6.59006,0,0,0,.68939-.03626l23.18317-2.43664L994.61182,454.721l-23.183,2.43649a6.51942,6.51942,0,0,0-5.83777,6.47736m-913.6932,6.52472a6.51891,6.51891,0,0,0,.67331-13.00208l-23.183-2.43649-1.36284,12.96582,23.18317,2.43649a6.59867,6.59867,0,0,0,.68936.03626m922.74661,48.3591h23.31085V505.48132H974.64447a6.51868,6.51868,0,0,0,0,13.03736m-948.5998,0H49.3555a6.51868,6.51868,0,0,0,0-13.03736H26.04467v13.03736M994.61182,569.279l1.36285-12.96582-23.18317-2.43652a6.60727,6.60727,0,0,0-.68939-.0362,6.51891,6.51891,0,0,0-.67328,13.00208l23.183,2.43646M28.02533,556.31317,29.38817,569.279l23.183-2.43646a6.51972,6.51972,0,0,0,5.8379-6.47736,6.59159,6.59159,0,0,0-.03624-.687,6.51963,6.51963,0,0,0-6.475-5.83771,6.58773,6.58773,0,0,0-.68936.0362l-23.18317,2.43652M985.98065,619.412l2.7107-12.75232L965.89,601.813a6.51862,6.51862,0,0,0-2.71069,12.75232l22.80133,4.84668m-947.96132,0,22.80134-4.84668A6.51862,6.51862,0,1,0,58.11,601.813l-22.80133,4.84668L38.01933,619.412m934.13735,48.956,4.02868-12.39917L954.0155,648.7655a6.51862,6.51862,0,1,0-4.02868,12.39917l22.16986,7.20331m-920.31335,0,22.16984-7.20331A6.51862,6.51862,0,1,0,69.9845,648.7655l-22.16983,7.20331L51.84333,668.368m901.4475,47.24286,5.30286-11.91-21.29553-9.48133a6.51858,6.51858,0,0,0-5.30268,11.91l21.29535,9.48132m-882.58183,0,21.2955-9.48132a6.51858,6.51858,0,1,0-5.30266-11.91l-21.29551,9.48133,5.30267,11.91M929.59033,760.623l6.51868-11.29065L915.92133,737.677a6.51866,6.51866,0,1,0-6.51868,11.29065L929.59033,760.623m-835.18066,0,20.18767-11.65534a6.51866,6.51866,0,1,0-6.51867-11.29065L87.891,749.33234,94.40967,760.623m806.90484,42.288,7.66315-10.54736L890.11884,778.662a6.51743,6.51743,0,0,0-9.10517,1.442v.00019a6.51854,6.51854,0,0,0,1.442,9.10516L901.31451,802.911m-778.629,0,18.85867-13.70166a6.5186,6.5186,0,1,0-7.663-10.54736l-18.85883,13.70166L122.6855,802.911m746.08782,39.10083,8.72369-9.68854-17.32336-15.598A6.51867,6.51867,0,0,0,851.45,826.414l17.32331,15.59784m-713.54665,0L172.54984,826.414a6.51862,6.51862,0,1,0-8.7235-9.68866L146.503,832.3233l8.72366,9.68854M832.3233,877.497l9.68854-8.72369L826.414,851.45a6.51867,6.51867,0,0,0-9.68866,8.72364l15.598,17.32336m-640.64663,0,15.598-17.32336A6.51867,6.51867,0,0,0,197.586,851.45l-15.59784,17.32331,9.68851,8.72369m600.687,31.48065,10.54736-7.66315-13.70166-18.85882a6.51728,6.51728,0,0,0-9.10516-1.442H780.104a6.5186,6.5186,0,0,0-1.442,9.10517l13.70166,18.85882m-560.72731,0L245.338,890.11884a6.51863,6.51863,0,1,0-10.54734-7.66315L221.089,901.31451l10.54734,7.66315m517.696,27.13135,11.29065-6.51868-11.65534-20.18768a6.51866,6.51866,0,1,0-11.29065,6.51868L749.33234,936.109m-474.66468,0L286.323,915.92133a6.5186,6.5186,0,1,0-11.2905-6.51868L263.377,929.59033l11.29065,6.51868m429.03315,22.48468,11.91-5.30286-9.48132-21.29535a6.51858,6.51858,0,0,0-11.91,5.30268l9.48133,21.29553m-383.40165,0,9.48133-21.29553a6.51855,6.51855,0,1,0-11.91-5.30268l-9.48135,21.29535,11.91,5.30286m335.66965,17.59167,12.39917-4.02868-7.20331-22.16986a6.51862,6.51862,0,1,0-12.39917,4.02868l7.20331,22.16986m-287.93765,0,7.20334-22.16986a6.51862,6.51862,0,1,0-12.39917-4.02868L355.632,972.15668l12.39917,4.02868m238.62851,12.506,12.75232-2.7107-4.84668-22.80133A6.51862,6.51862,0,0,0,601.813,965.89l4.84668,22.80134m-189.31934,0L422.187,965.89a6.51872,6.51872,0,0,0-5.02084-7.7315H417.166a6.51124,6.51124,0,0,0-7.73133,5.02081L404.588,985.98065l12.75232,2.7107m138.97284,7.28332,12.96582-1.36285-2.43646-23.183a6.51985,6.51985,0,0,0-6.47479-5.83777,6.59551,6.59551,0,0,0-.68958.03626,6.51839,6.51839,0,0,0-5.80151,7.16418l2.43652,23.18317m-88.62634,0,2.43649-23.18317a6.51836,6.51836,0,0,0-5.80148-7.16418,6.59523,6.59523,0,0,0-.68961-.03626,6.51941,6.51941,0,0,0-6.47473,5.83777l-2.43649,23.183,12.96582,1.36285m37.79449-21.3302v23.31085h13.03736V974.64447a6.51868,6.51868,0,0,0-13.03736,0m15.6449-954.42866c5.48077.09979,10.95825.29,16.39386.56766,5.53229.29231,11.114.6803,16.67371,1.16083q-16.51328-1.41876-33.06757-1.72849m-32.21426.44458c-.93225.04463-1.87522.09251-2.80829.14246-4.46872.23183-8.90805.52212-13.34442.87246q8.07805-.64054,16.15271-1.01492m-2.72208.07825c-2.11877.11386-4.22479.24077-6.34656.38243,2.12177-.14166,4.22779-.26857,6.34656-.38243m51.3302.04483c.99872.051,1.97223.10371,2.96936.16068-.99713-.057-1.97064-.10966-2.96936-.16068m-51.41641.01938q-12.7191.68087-25.51782,2.02448c-8.624.90642-17.19428,2.034-25.6622,3.36974q11.607-1.85171,23.16354-3.13772,7.32709-.80166,14.67206-1.384c4.43637-.35034,8.8757-.64063,13.34442-.87246m54.38577.1413A493.0539,493.0539,0,0,1,604.33,28.78476q14.07457,2.70275,27.90832,6.20634c-10.0509-2.51964-20.27447-4.74352-30.58508-6.64363q-19.27433-3.55793-38.75354-5.57783-11.19-1.16883-22.41028-1.82549m-60.64612.17692c-6.46176.43141-12.9548.99391-19.44034,1.68566q-13.0452,1.35991-25.86749,3.39129,8.21448-1.31968,16.4271-2.35569c9.60418-1.19117,19.25164-2.1,28.88073-2.72126m70.47309.37752a487.82678,487.82678,0,0,1,51.3363,6.74346,487.82678,487.82678,0,0,0-51.3363-6.74346m-77.55716.17672q-7.34161.58214-14.67206,1.384c.77469-.08634,1.54141-.17,2.31579-.25262,4.09833-.42724,8.22864-.80547,12.35627-1.13142m81.43454.269c2.89386.24863,5.81652.52575,8.70593.82534-2.88941-.29959-5.81207-.57671-8.70593-.82534m-93.93039.81505c-3.09159.33-6.20722.69288-9.30081,1.083a489.35441,489.35441,0,0,0-66.27378,12.913A488.12137,488.12137,0,0,1,460.2634,22.75935m102.63632.01029q19.46923,2.01864,38.75354,5.57783-14.91266-2.74821-30.15692-4.60441c-2.85266-.34831-5.73792-.67483-8.59662-.97342M460.403,22.80673c-.77438.08259-1.5411.16628-2.31579.25262q-14.97575,1.63851-29.86606,4.19581c2.11121-.36755,4.20319-.718,6.31436-1.05714q12.834-2.03076,25.86749-3.39129m-2.31579.25262q-11.57181,1.2897-23.16354,3.13772-12.92048,2.03811-25.58564,4.728,9.44742-2.02818,18.88312-3.66989,14.88144-2.55728,29.86606-4.19581m119.08432,1.29616q12.3251,1.63769,24.4812,3.88654-12.14749-2.24653-24.4812-3.88654m-58.65283,1.68916v0h0m-13.03736,0V49.3555a6.51868,6.51868,0,0,0,13.03736,0,6.51868,6.51868,0,0,1-13.03736,0V26.04467m-70.55767.1524q-12.5783,2.00665-25.18866,4.68426-12.79591,2.71986-25.2721,6.06119,12.41821-3.345,24.87512-6.01747,12.663-2.68558,25.58564-4.728m-.38816.00095a488.75241,488.75241,0,0,0-64.85211,14.838,488.75241,488.75241,0,0,1,64.85211-14.838m-6.31436,1.05714a490.45566,490.45566,0,0,0-70.23956,17.48312,490.45566,490.45566,0,0,1,70.23956-17.48312m173.43158.98689A487.9714,487.9714,0,0,1,650.025,39.76239a487.9714,487.9714,0,0,0-48.37225-11.52034m0,0c8.65491,1.60817,17.26862,3.45024,25.78815,5.51331-8.51953-2.06307-17.13324-3.90514-25.78815-5.51331m.00055.10542q18.47973,3.41125,36.71051,8.23595-18.21113-4.82154-36.71051-8.23595m2.67676.43729q11.66619,2.21514,23.11084,4.9706-11.46461-2.75751-23.11084-4.9706M409.338,30.92505A489.64741,489.64741,0,0,0,344.84,49.2862a489.64741,489.64741,0,0,1,64.498-18.36115m218.10285,2.83031q11.3952,2.74078,22.5841,6.007-11.18233-3.26285-22.5841-6.007m0,0q13.57242,3.28663,26.90234,7.33039-13.3148-4.0378-26.90234-7.33039m4.79748,1.23574c7.45612,1.86915,14.80042,3.8953,22.10486,6.09465,3.06757.93024,6.10535,1.884,9.15082,2.873-8.3313-2.68836-16.68848-5.14029-25.13025-7.37534-2.0426-.54519-4.07483-1.07322-6.12543-1.59232m6.12543,1.59232c8.44177,2.23505,16.79895,4.687,25.13025,7.37534q12.77756,4.14961,25.27368,8.976-12.40283-4.76274-25.03809-8.84822-12.56661-4.08775-25.36584-7.50309m-253.675.17187q-7.54861,2.02308-15.00543,4.28076-7.22268,2.17989-14.3634,4.5777,14.5978-4.90814,29.36883-8.85846m-.22592.18723A493.004,493.004,0,0,0,318.977,59.48859a493.004,493.004,0,0,1,65.48587-22.54607M650.025,39.76239a487.73206,487.73206,0,0,1,50.17414,17.6597A487.73206,487.73206,0,0,0,650.025,39.76239m0,0q13.23863,3.87562,26.1969,8.47557-12.9417-4.59347-26.1969-8.47557M369.68338,41.03605c-3.92731,1.18822-7.8136,2.41827-11.70181,3.70223q-6.1713,2.03055-12.2883,4.22493c3.20846-1.15407,6.40268-2.26546,9.62671-3.34946q7.12733-2.39349,14.3634-4.5777m284.65982.0497q11.04867,3.32669,21.87866,7.15221,5.60294,1.98868,11.15906,4.11369-11.85259-4.512-23.8869-8.39289c-3.04547-.989-6.08325-1.94277-9.15082-2.873m9.15082,2.873q12.03323,3.88293,23.8869,8.39289,12.653,4.83957,24.95483,10.34126-11.68093-5.19615-23.568-9.75818-12.50052-4.82778-25.27368-8.976m-305.51245.77952q-6.6085,2.18223-13.14157,4.54792c-3.52344,1.26991-7.05506,2.58883-10.53794,3.93532,3.77909-1.46648,7.58856-2.89051,11.39121-4.25831q6.12872-2.19892,12.2883-4.22493m-2.66159.87547q-9.652,3.24133-19.12012,6.86668,9.46916-3.625,19.12012-6.86668M676.22186,48.238q12.154,4.29234,23.97724,9.18413c4.10937,1.70342,8.21026,3.46908,12.26251,5.27982q-12.42022-5.534-25.08069-10.35026-5.54379-2.12042-11.15906-4.11369m-330.52859.72525q-4.76188,1.70852-9.49341,3.51722,4.73433-1.81026,9.49341-3.51722m-.85327.323q-13.104,4.744-25.863,10.20239c-2.61768,1.11316-5.20108,2.23843-7.79224,3.394q11.4808-5.14746,23.11728-9.66109c3.48288-1.34649,7.0145-2.66541,10.53794-3.93532m342.54092,3.06545q12.65725,4.81828,25.08069,10.35026,12.45548,5.56563,24.53522,11.79241-12.17753-6.251-24.66108-11.80141-12.327-5.51128-24.95483-10.34126m-351.18106.12878C332.0498,54.06917,327.90118,55.7229,323.806,57.42c4.09515-1.69707,8.24377-3.3508,12.39383-4.93954m0,0q-12.49329,4.77707-24.79813,10.27084,12.28062-5.48665,24.79813-10.27084m352.56784.4543A494.29055,494.29055,0,0,1,760.98608,87.807,494.29055,494.29055,0,0,0,688.7677,52.93473m-354.46564.28679c-3.52713,1.36361-7.01141,2.75745-10.496,4.19845,3.48462-1.441,6.9689-2.83484,10.496-4.19845M323.806,57.42c-8.36334,3.46584-16.57245,7.13878-24.69559,11.04529,8.12314-3.90651,16.33225-7.57945,24.69559-11.04529m0,0c-4.15533,1.71835-8.31088,3.50468-12.4043,5.3313,4.09342-1.82662,8.249-3.61295,12.4043-5.3313m376.39307.00212q18.41454,7.615,36.02862,16.64466c-7.82879-4.00645-15.77044-7.80228-23.76611-11.36484-4.05225-1.81074-8.15314-3.5764-12.26251-5.27982M318.977,59.48859q-13.34463,5.70632-26.30753,12.17929c-1.47079.73028-2.94839,1.47336-4.4093,2.2171q11.35414-5.8155,22.92459-11.00237c2.59116-1.15559,5.17456-2.28086,7.79224-3.394m393.35873,3.20432a493.5839,493.5839,0,0,1,68.72736,37.54236,493.5839,493.5839,0,0,0-68.72736-37.54236m.12586.009c7.99567,3.56256,15.93732,7.35839,23.76611,11.36484q12.19584,6.24743,23.97571,13.14218-11.44511-6.67935-23.2066-12.71461-12.07893-6.22448-24.53522-11.79241m-401.05988.04936q-11.548,5.15937-22.88806,10.94828,11.33414-5.78818,22.88806-10.94828m0,0q-17.42925,7.77752-34.08215,16.831,16.64429-9.04069,34.08215-16.831m-.21695.13134c-4.04687,1.8048-8.09317,3.676-12.07434,5.58265,3.98117-1.90669,8.02747-3.77785,12.07434-5.58265m-12.07434,5.58265q-12.60485,6.06183-24.81418,12.815,12.19483-6.74473,24.81418-12.815m0,0c-3.56585,1.7078-7.08459,3.44623-10.59677,5.23429,3.51218-1.78806,7.03092-3.52649,10.59677-5.23429m-10.59677,5.23429q-11.39754,5.82057-22.54556,12.27137,11.15578-6.45779,22.54556-12.27137m0,0q-5.64912,2.876-11.19409,5.88273,5.55492-3.01188,11.19409-5.88273m-.25348.18543q-11.78343,6.03536-23.33462,12.76173a494.5874,494.5874,0,0,0-56.06743,37.99781c-2.12547,1.66134-4.24655,3.347-6.33756,5.03668q5.29012-4.28934,10.67327-8.41535A492.40479,492.40479,0,0,1,274.29626,81.2803q6.91273-3.805,13.96393-7.39532m447.96753.18177q18.0326,9.22837,35.42249,20.03363-17.35593-10.79394-35.42249-20.03363m.76911.42757A491.98126,491.98126,0,0,1,803.65375,115.89a491.98126,491.98126,0,0,0-66.65692-41.39572m-459.67725,5.088q-11.91229,6.47043-23.3989,13.562,11.48636-7.088,23.3989-13.562m0,0a488.1389,488.1389,0,0,0-43.925,26.90693,488.1389,488.1389,0,0,1,43.925-26.90693m-3.02332,1.698a492.40479,492.40479,0,0,0-61.10241,39.98555,491.77446,491.77446,0,0,1,52.77426-35.29493c2.76266-1.59192,5.52664-3.14859,8.32815-4.69062m-8.32815,4.69062a491.77446,491.77446,0,0,0-52.77426,35.29493q-6.54318,5.01174-12.9252,10.246-8.00378,6.54532-15.66437,13.36221a491.55373,491.55373,0,0,1,69.3164-51.72976c3.963-2.43717,8.0001-4.84123,12.04743-7.17339m494.23532,1.238c3.84869,2.24609,7.65234,4.53542,11.44678,6.89145a489.0868,489.0868,0,0,1,56.54034,41.04876c-1.51532-1.269-3.024-2.517-4.55371-3.767a490.41987,490.41987,0,0,0-63.43341-44.1732m.78265.598q10.18269,5.97285,20.077,12.42831,9.769,6.39147,19.19824,13.21775Q781.24054,99.70411,760.98608,87.807m-507.0654,5.33735a491.55373,491.55373,0,0,0-69.3164,51.72976q-8.13456,7.23681-15.87982,14.76555a490.24909,490.24909,0,0,1,64.67012-53.15041q10.06807-6.911,20.5261-13.3449m517.72953.95607a488.524,488.524,0,0,1,77.79748,59.92118q-10.37082-9.75924-21.25714-18.87242a489.0868,489.0868,0,0,0-56.54034-41.04876m9.4129,6.13489Q792.56,107.739,803.65375,115.89q10.07529,7.431,19.76587,15.36631-11.31218-9.2403-23.15827-17.80333-9.45016-6.84051-19.19824-13.21775m-547.66853,6.25394a490.24909,490.24909,0,0,0-64.67012,53.15041q-8.145,7.91519-15.85891,16.13873a488.74119,488.74119,0,0,1,80.529-69.28914M800.26135,113.453q11.82724,8.54918,23.15827,17.80333,11.28094,9.23755,21.97888,19.1067a495.2634,495.2634,0,0,0-45.13715-36.91m3.3924,2.437c6.777,4.98163,13.458,10.15993,19.98309,15.49209q9.58914,7.86666,18.78375,16.21653-9.301-8.41967-19.001-16.34231-9.67456-7.92207-19.76587-15.36631m-590.4599,5.37581q-5.37546,4.11993-10.67327,8.41535-1.12836.91183-2.25193,1.83066,6.36783-5.22332,12.9252-10.246m-10.67327,8.41535c-2.06257,1.67238-4.10435,3.35538-6.14685,5.06642,2.0425-1.711,4.08428-3.394,6.14685-5.06642m620.899,1.57515q9.70375,7.9265,19.001,16.34231c2.53089,2.29845,5.02173,4.60843,7.50293,6.95761,3.21826,3.04934,6.42395,6.16929,9.5763,9.3212q-6.92735-6.90738-14.10132-13.51442-10.70911-9.87831-21.97888-19.1067m-623.151.25551c-3.62687,2.975-7.22658,6.01478-10.76577,9.09036,3.53919-3.07558,7.1389-6.11537,10.76577-9.09036m-3.89492,3.23576q-6.82722,5.71932-13.49707,11.72388-3.49314,3.14525-6.92181,6.35074,6.66462-6.23785,13.548-12.22,3.41232-2.96139,6.87085-5.8546m631.81682.40152q7.93936,6.6779,15.652,13.74182-7.7091-7.06144-15.652-13.74182m-638.68767,5.45308q-6.8927,5.98983-13.548,12.22-7.07325,6.61243-13.81622,13.42553,2.65793-2.69264,5.35888-5.34631,10.70859-10.49587,22.00537-20.29924m-4.8986,4.27185q-8.754,7.81934-17.10677,16.02739,8.36238-8.216,17.10677-16.02739m657.81631,2.72459c.47962.43418.944.8562,1.422,1.2923-.478-.4361-.94238-.85812-1.422-1.2923m1.422,1.2923c2.04858,1.87648,4.05774,3.74826,6.08093,5.66531-2.02319-1.91705-4.03235-3.78883-6.08093-5.66531m0,0q10.83939,9.89014,21.11816,20.45355-10.25389-10.542-21.11816-20.45355m1.55591,1.47209q7.19055,6.624,14.10132,13.51442c3.952,3.95148,7.82824,7.95938,11.67279,12.07189q-12.41272-13.262-25.77411-25.58631m-669.44365,2.45919q-15.36573,14.38172-29.47,30.03327,7.63387-8.48316,15.65381-16.60774,6.75567-6.82369,13.81622-13.42553m673.49284,1.19932A488.93322,488.93322,0,0,1,917.15485,232.881a490.24412,490.24412,0,0,0-52.1941-63.53653q-7.61736-7.86623-15.51306-15.323m.47583.53471q6.08569,5.76183,11.98389,11.73816-1.2009-1.214-2.40759-2.417c-3.15235-3.15191-6.358-6.27186-9.5763-9.3212m-681.19906,5.08335q-10.34056,10.094-20.058,20.75975,9.71061-10.65867,20.058-20.75975m-1.22695,1.26184q-2.69965,2.65242-5.35888,5.34631-7.274,7.34725-14.18352,14.934c.22771-.251.48312-.53192.71136-.78244q9.14809-10.00722,18.831-19.49791m692.00231,2.976q1.209,1.20552,2.40759,2.417,7.973,8.07863,15.559,16.507-3.11782-3.45947-6.29382-6.85208c-3.84455-4.11251-7.72077-8.12041-11.67279-12.07189m-697.36119,2.3703q-8.02241,8.12712-15.65381,16.60774-8.62725,9.57423-16.76006,19.6046,8.80713-10.88929,18.23035-21.2783,6.90522-7.58046,14.18352-14.934m699.76878.04666q9.347,9.44973,18.20215,19.41954-8.83713-9.95323-18.20215-19.41954m3.05334,3.05008a490.24412,490.24412,0,0,1,52.1941,63.53653q7.24465,10.52568,13.96911,21.47972a491.493,491.493,0,0,0-51.0144-68.64679q-7.41056-8.37958-15.14881-16.36946m-712.0952,6.43384q-9.89535,10.58949-19.12484,21.71291A488.84247,488.84247,0,0,0,92.47812,254.976a488.41508,488.41508,0,0,1,60.38743-79.19762m718.30706.171q3.182,3.39964,6.29382,6.85208c2.09784,2.33033,4.15344,4.65779,6.2063,7.02722q-3.0346-3.4983-6.14423-6.952c-2.09686-2.32876-4.225-4.64795-6.35589-6.9273m-722.50614,4.45c-.22824.25052-.48365.53146-.71136.78244-.95133,1.04434-1.88524,2.07837-2.826,3.12913q1.75635-1.963,3.5374-3.91157m-.71136.78244q-9.42408,10.38706-18.23035,21.2783-8.09372,9.98259-15.66781,20.388,8.35563-11.51988,17.38879-22.57065,6.67935-8.13871,13.68333-15.96651c.9408-1.05076,1.87471-2.08479,2.826-3.12913m729.51132,1.61963q7.64036,8.47734,14.90906,17.32989-7.24568-8.8266-14.90906-17.32989m-730.98161.05407a494.74424,494.74424,0,0,0-32.44421,40.067q7.57128-10.42932,15.68415-20.46244,8.12277-10.01841,16.76006-19.6046m-1.35575,1.45543q-5.82326,6.50391-11.38836,13.18032,5.55457-6.66351,11.38836-13.18032m734.98049,1.403a491.493,491.493,0,0,1,51.0144,68.64679c2.23395,3.64125,4.43848,7.3413,6.58393,11.0537a491.752,491.752,0,0,0-34.89368-52.11607q-5.10819-6.673-10.43872-13.16706-6.01923-7.35442-12.26593-14.41736m3.56317,4.11469q5.40381,6.22962,10.562,12.58827-5.15873-6.35847-10.562-12.58827m-749.932,7.6626q-1.15345,1.39-2.295,2.78619a490.85945,490.85945,0,0,0-43.87151,62.88847c1.61409-2.75668,3.2333-5.461,4.90389-8.19a488.84247,488.84247,0,0,1,41.26259-57.48471m758.63478,2.64007q5.32809,6.49067,10.43872,13.16706-4.20731-5.49282-8.57953-10.88146-.92753-1.14715-1.85919-2.2856m1.85919,2.2856q4.38418,5.40373,8.57953,10.88146a492.3081,492.3081,0,0,1,39.60589,60.457q3.98694,7.2214,7.746,14.60712-8.52732-16.65674-18.44043-32.855Q919.07011,234.83238,904.44,215.47708q-5.01425-6.64089-10.20532-13.06015m-764.50992.04318q-8.11068,10.02824-15.68415,20.46244c-5.02441,6.91269-9.89046,13.98561-14.55334,21.15489,4.66261-7.18784,9.5328-14.285,14.56968-21.22934q7.57293-10.40368,15.66781-20.388m773.08945,10.83828a491.752,491.752,0,0,1,34.89368,52.11607q2.39273,4.1402,4.71221,8.34094a492.3081,492.3081,0,0,0-39.60589-60.457M114.057,222.8481a491.79586,491.79586,0,0,0-40.41222,65.81148A491.79586,491.79586,0,0,1,114.057,222.8481m-.01634.07445A494.7008,494.7008,0,0,0,86.08483,265.964q6.41975-11.12191,13.40244-21.88658c4.66288-7.16928,9.52893-14.2422,14.55334-21.15489M917.15485,232.881a487.75748,487.75748,0,0,1,27.80761,45.4487,487.75748,487.75748,0,0,0-27.80761-45.4487M99.48727,244.07744a492.561,492.561,0,0,0-36.90742,67.83394,492.561,492.561,0,0,1,36.90742-67.83394M931.124,254.36076q7.23541,11.75274,13.8385,23.969-6.589-12.19739-13.8385-23.969M92.47812,254.976q-8.05355,13.13363-15.22936,26.68458,7.16284-13.52142,15.22936-26.68458m-4.90389,8.19c-4.8974,8.36417-9.555,16.89136-13.9295,25.49366q-5.83086,11.42137-11.0711,23.1661,6.79758-15.28366,14.67513-30.16513,4.97266-9.37871,10.32547-18.49463m850.13366,2.24854q6.46114,11.129,12.29785,22.52362-5.82624-11.37048-12.29785-22.52362M86.08483,265.964A494.09482,494.09482,0,0,0,52.753,335.69873,494.09482,494.09482,0,0,1,86.08483,265.964M942.4201,273.7554q6.77061,12.206,12.85663,24.8194-6.08578-12.61794-12.85663-24.8194m2.54236,4.57434q7.958,14.73162,14.93384,30.07276-6.97275-15.34593-14.93384-30.07276m0,0c1.70746,3.16739,3.40192,6.39514,5.04328,9.60834-1.64136-3.2132-3.33582-6.44095-5.04328-9.60834m-867.7137,3.33081q-7.878,14.87151-14.67513,30.16513-3.15947,7.08335-6.10418,14.29041a488.36561,488.36561,0,0,1,20.77931-44.45554m872.757,6.27753q5.19818,10.14463,9.89056,20.46442-4.69381-10.31776-9.89056-20.46442m0,0c1.79974,3.52322,3.55212,7.05933,5.271,10.63672-1.71887-3.57739-3.47125-7.1135-5.271-10.63672m.1604.42444q5.88994,11.50519,11.12939,23.22406,1.944,4.36939,3.8039,8.7807-5.64872-13.32134-12.057-26.25958-1.41979-2.88291-2.87634-5.74518m-876.52141.29706c-3.90331,7.67572-7.58094,15.40594-11.06488,23.2518q-5.2291,11.71663-9.85658,23.73352,4.60394-12.01863,9.85036-23.81922,5.24355-11.75572,11.0711-23.1661m881.632,9.91522q5.62007,11.65215,10.64936,23.66113-5.01562-11.98288-10.64936-23.66113m0,0c2.06269,4.29288,4.07477,8.64236,6.0188,13.01178-1.944-4.36942-3.95611-8.7189-6.0188-13.01178m4.61957,9.8277q6.12149,13.45614,11.38422,27.17419Q966.015,321.86126,959.8963,308.4025m0,0c2.074,4.56445,4.091,9.19107,6.02979,13.83343-1.93879-4.64236-3.95581-9.269-6.02979-13.83343m1.39923,3.18408q5.166,11.54932,9.69849,23.27722c1.43365,3.72122,2.81177,7.43289,4.158,11.20026q-4.67184-13.00891-10.05261-25.69678-1.86355-4.41952-3.8039-8.7807m-898.7219.2391Q57.32354,323.63,52.72327,335.6449q-2.28219,5.92959-4.41756,11.937,3.84412-10.87134,8.16374-21.46582,2.94063-7.19911,6.10418-14.29041m.00622.0857q-5.22591,11.76878-9.82689,23.78735-4.61546,11.98764-8.607,24.22717,3.96231-12.22787,8.57727-24.281,4.62288-12.01122,9.85658-23.73352m902.51958,8.4559A492.64074,492.64074,0,0,1,987.106,384.64435a492.64074,492.64074,0,0,0-22.00653-64.27707m.82666,1.86865q2.77441,6.62842,5.35443,13.34076-2.58481-6.725-5.35443-13.34076m0,0q2.61648,6.265,5.06793,12.62787-2.44921-6.35706-5.06793-12.62787M56.46945,326.11609a488.1825,488.1825,0,0,0-16.22672,46.22342,488.1825,488.1825,0,0,1,16.22672-46.22342M970.994,334.8638c1.65027,4.26755,3.23138,8.53467,4.756,12.832,1.44214,4.07593,2.83411,8.1824,4.16486,12.28616-1.52314-4.67993-3.10315-9.29638-4.76282-13.91787-1.34625-3.76737-2.72437-7.479-4.158-11.20026m.2865.71289q4.65609,12.11363,8.67962,24.51138-4.02566-12.41166-8.67962-24.51138m0,0c1.54767,4.03134,3.03247,8.05783,4.46948,12.11908-1.437-4.06125-2.92181-8.08774-4.46948-12.11908m-918.55725.06821Q48.111,347.68526,44.146,359.9259c-1.04066,3.1911-2.04411,6.37891-3.02019,9.5943,2.22447-7.38009,4.62773-14.7207,7.1799-21.93829q2.13129-5.99748,4.41756-11.937m.02969.05383q-4.61731,12.06133-8.58536,24.31335-3.97908,12.21314-7.32482,24.64771,3.32531-12.45556,7.30322-24.73389,3.99237-12.2423,8.607-24.22717M975.152,346.06406a490.351,490.351,0,0,1,17.98553,63.57083A490.351,490.351,0,0,0,975.152,346.06406M48.30571,347.58191q-4.34845,12.23657-8.063,24.7576,3.70711-12.503,8.063-24.7576m927.44429.11386q2.19186,6.17826,4.21014,12.3923c1.325,4.08487,2.60395,8.2117,3.8241,12.34262-1.23273-4.16046-2.52942-8.3316-3.86938-12.44876-1.33075-4.10376-2.72272-8.21023-4.16486-12.28616M44.146,359.9259Q40.16223,372.22,36.84278,384.65979q-.87186,3.24083-1.70122,6.50079c1.8389-7.29586,3.829-14.49,5.98425-21.64038.97608-3.21539,1.97953-6.4032,3.02019-9.5943m935.76886.056a490.44728,490.44728,0,0,1,16.91534,68.73813,490.44728,490.44728,0,0,0-16.91534-68.73813m.04528.10614q3.97275,12.22958,7.27454,24.57093-1.64758-6.14279-3.45044-12.22831c-1.22015-4.13092-2.49914-8.25775-3.8241-12.34262M41.12581,369.5202q-3.974,13.09118-7.22552,26.438,3.248-13.34057,7.22552-26.438m-.88308,2.81931q-3.4548,11.68821-6.34244,23.61868,2.88354-11.92218,6.34244-23.61868m0,0A487.78151,487.78151,0,0,0,28.2296,422.411a487.78151,487.78151,0,0,1,12.01313-50.0715m943.54151.09118a488.81175,488.81175,0,0,1,14.09735,62.60953,488.81175,488.81175,0,0,0-14.09735-62.60953m3.32172,12.21366c2.235,8.31064,4.24872,16.66147,6.03161,24.99054q2.65833,12.57074,4.68085,25.38727-2.01187-12.62673-4.69977-25.28717-2.69916-12.6986-6.01269-25.09064m.12872.01465a488.07331,488.07331,0,0,1,14.03644,75.8999c-.335-3.15494-.699-6.29489-1.09644-9.45191a489.87811,489.87811,0,0,0-12.94-66.448m-950.3919.00079q-5.00287,18.73929-8.51343,37.78427,3.50826-19.0252,8.51343-37.78427m-1.70122,6.50079c-2.591,10.27982-4.86979,20.73154-6.81221,31.28348-2.32489,12.60776-4.15984,25.32-5.49687,38.05325q-1.20554,11.418-1.882,22.90311a492.399,492.399,0,0,1,7.95476-64.3624Q31.622,404.991,35.14156,391.16058m-1.24127,4.79761q-2.766,11.436-4.99508,23.07983,2.22617-11.63712,4.99508-23.07983m0,0Q30.70743,409.0723,28.2296,422.411q2.47389-13.32838,5.67069-26.45282m959.23728,13.6767q2.04273,9.54276,3.69263,19.08517,2.5145,14.72366,4.13171,29.56232-1.29035-11.61987-3.14349-23.26022-2.02038-12.82425-4.68085-25.38727M28.90521,419.038a492.399,492.399,0,0,0-7.95476,64.3624c-.32059,5.4505-.55052,10.88916-.69034,16.35123Q20.10048,505.88706,20.0934,512c-.00027-.21091-.00038-.40781-.00037-.61868a490.2807,490.2807,0,0,1,4.29068-64.76752q1.87182-13.88453,4.5215-27.57578m-.67561,3.373q-2.21842,12.00857-3.84589,24.20279,1.62351-12.18224,3.84589-24.20279m0,0a488.02866,488.02866,0,0,0-6.71872,51.1131A488.02866,488.02866,0,0,1,28.2296,422.411m.09975.03305c-1.76236,9.5737-3.24624,19.21314-4.45584,28.99561-.37526,3.01959-.7215,6.03122-1.041,9.05764,1.337-12.73327,3.172-25.44549,5.49687-38.05325m968.50085,6.276c.36542,2.11121.71436,4.209,1.05139,6.32016q1.991,12.67182,3.3302,25.54044c-.08069-.75824-.16565-1.53977-.24988-2.29828q-1.61535-14.81538-4.13171-29.56232m.98822,6.3021q1.85706,11.65544,3.14349,23.26022c.52594,4.82361.97821,9.6268,1.36145,14.45984.35419,4.48514.64881,8.99988.8819,13.518q-.681-12.79215-2.03259-25.6744-1.35444-12.88651-3.35425-25.56369m.06317.01806c.85394,5.34931,1.62,10.72046,2.29309,16.06677q1.77833,14.36032,2.7041,28.739-.64233-9.62028-1.667-19.26532-1.33731-12.87731-3.3302-25.54044M24.38371,446.6138A490.2807,490.2807,0,0,0,20.093,511.38132c0,.21087.0001.40777.00037.61868q-.01611,12.94656.6419,25.7431-.70387-13.12188-.70344-26.15451-.00311-19.15305,1.479-38.06448Q22.57674,460.01,24.38371,446.6138M994.61182,454.721l1.36285,12.96567L994.61182,454.721l-23.183,2.43649a6.51942,6.51942,0,0,0-5.83777,6.47736,6.51942,6.51942,0,0,1,5.83777-6.47736l23.183-2.43649m6.35009,3.56137c.08423.75851.16919,1.54.24988,2.29828.41895,4.03424.79071,8.099,1.11157,12.16156-.38324-4.833-.83551-9.63623-1.36145-14.45984M22.83248,460.49731c-.321,3.05722-.61175,6.10108-.8757,9.16327.264-3.06219.55468-6.106.8757-9.16327m978.43864.06159a488.03786,488.03786,0,0,1,1.21722,89.9267q1.47454-18.89941,1.4798-38.07422-.0021-13.03172-.70422-26.16938-.66175-12.93095-1.9928-25.6831m-.05933.02176q1.02695,9.65547,1.667,19.26532.96168,14.90583,1.01954,29.83435c-.04017-6.836-.22223-13.678-.5492-20.563-.25085-5.45416-.59387-10.92831-1.02576-16.37509-.32086-4.06259-.69262-8.12732-1.11157-12.16156m-35.62073,3.0542a6.59744,6.59744,0,0,0,.03626.687,6.5194,6.5194,0,0,0,6.47479,5.83774,6.59006,6.59006,0,0,0,.68939-.03626l23.18317-2.43664-23.18317,2.43664a6.59006,6.59006,0,0,1-.68939.03626,6.5194,6.5194,0,0,1-6.47479-5.83774,6.59744,6.59744,0,0,1-.03626-.687M21.95678,469.66058q-1.42932,16.58186-1.7409,33.209.152-8.345.57941-16.61975.44047-8.27441,1.16149-16.58924m980.36658,3.08164c.43189,5.44678.77491,10.92093,1.02576,16.37509-.045-.94855-.09332-1.90765-.14386-2.85706-.23309-4.51815-.52771-9.03289-.8819-13.518m-980.81248.78189q-1.4745,18.89946-1.479,38.06448.0021,13.03176.70344,26.15451.6605,12.90684,1.99161,25.6792a487.72927,487.72927,0,0,1-1.216-89.89819m981.3679,6.32187c.1427,2.13785.27057,4.2612.38514,6.396-.11457-2.13482-.24244-4.25817-.38514-6.396M20.95045,483.40042c-.05435.94806-.10618,1.89993-.15516,2.8494.049-.94947.10081-1.90134.15516-2.8494m982.31347,2.84158q.70385,13.12185.70422,26.16938.00311,19.1531-1.4798,38.07422-1.06768,13.53753-2.87793,26.94433a490.22354,490.22354,0,0,0,4.29651-64.81128c.00006-.21081-.00006-.40771-.00036-.61865q.01611-12.94651-.64264-25.758m-982.46863.00782q-.42684,8.27513-.57941,16.61975c-.05844,3.11911-.08775,6.25793-.08719,9.378q.002,11.3432.52415,22.67694c-.32841-6.90143-.51093-13.75726-.55121-20.6095-.01884-4.85217.03442-9.71676.15848-14.56341.1166-4.48136.29555-9.0004.53518-13.50183m982.41.01043c.05054.94941.09882,1.90851.14386,2.85706q.52058,11.31542.52228,22.63507.00082,4.74939-.08936,9.4906c.05652-3.07043.08515-6.15906.08515-9.243q0-12.95746-.66193-25.73975m.14386,2.85706c.327,6.885.509,13.727.5492,20.563q.02838,7.30137-.15906,14.59225-.175,6.72208-.534,13.46717c.28284-5.484.475-10.96668.57678-16.49677q.09027-4.74774.08936-9.4906-.0021-11.32013-.52228-22.63507M20.21588,502.86957q-.083,4.55635-.08305,9.13043,0,12.95747.66246,25.75018c-.04967-.933-.09809-1.89343-.14245-2.82562q-.52265-11.33844-.52415-22.67694c-.00056-3.12012.02875-6.25894.08719-9.378m983.68244,6.81076c.00445.76318.00732,1.55716.00824,2.31967-.00092-.76251-.00379-1.55649-.00824-2.31967M1003.90656,512c.0003.21094.00042.40784.00036.61865a490.22354,490.22354,0,0,1-4.29651,64.81128q-1.87,13.86118-4.51715,27.54a492.80039,492.80039,0,0,0,7.95734-64.38824q.47946-8.15278.68866-16.30909c.10638-4.09027.16223-8.20044.1673-12.27258M20.0934,512c.00094.76251.00375,1.55188.00823,2.31506-.00448-.76318-.00729-1.55255-.00823-2.31506m.00823,2.31506c.04028,6.85224.2228,13.70807.55121,20.6095q.37392,8.11212,1.015,16.22168c.32259,4.09534.69808,8.2066,1.12038,12.27307q-1.027-9.65543-1.66831-19.28467-.96165-14.90578-1.0183-29.81958M1003.782,521.243c-.1018,5.53009-.29394,11.01276-.57678,16.49677-.29193,5.48352-.67413,10.96093-1.15094,16.47137q1.41285-16.44443,1.72772-32.96814M20.65284,534.92456c.04436.93219.09278,1.89258.14245,2.82562q.34705,6.72813.87257,13.39606-.64085-8.10114-1.015-16.22168m982.55242,2.81519c-.049.94946-.10034,1.89386-.15466,2.84192.05432-.94806.10565-1.89246.15466-2.84192m-982.47.00335c.11452,2.13477.2419,4.25367.38463,6.39154-.14273-2.13787-.27011-4.25677-.38463-6.39154m.06.00708q.681,12.79221,2.032,25.664,1.35443,12.88643,3.35434,25.56409-1.8532-11.63113-3.14112-23.23834c-.52927-4.85425-.98794-9.72986-1.37269-14.59369q-.52614-6.67923-.87257-13.39606m982.25531,2.83149a492.80039,492.80039,0,0,1-7.95734,64.38824Q992.37652,619.017,988.85577,632.85c2.57526-10.21735,4.84565-20.61988,6.78028-31.10608,2.34918-12.713,4.2008-25.53388,5.54553-38.37452.79669-7.56634,1.422-15.18774,1.869-22.78771m-981.93067,3.553q.64229,9.62028,1.66831,19.28467,1.33728,12.87735,3.33056,25.54279Q24.834,580.91433,23.822,572.86658q-1.77409-14.33743-2.702-28.73194m981.36841,6.351a488.11626,488.11626,0,0,1-6.72931,51.16449,488.11626,488.11626,0,0,0,6.72931-51.16449m-980.82048.66064c.38475,4.86383.84342,9.73944,1.37269,14.59369-.08611-.77466-.17-1.5462-.25231-2.32062-.4223-4.06647-.79779-8.17773-1.12038-12.27307m30.23,2.69421a6.51963,6.51963,0,0,1,6.475,5.83771,6.59159,6.59159,0,0,1,.03624.687,6.59159,6.59159,0,0,0-.03624-.687,6.51963,6.51963,0,0,0-6.475-5.83771,6.58773,6.58773,0,0,0-.68936.0362l-23.18317,2.43652,23.18317-2.43652a6.58773,6.58773,0,0,1,.68936-.0362m950.15646.37067c-.26312,3.06226-.55261,6.10095-.87274,9.15826.32013-3.05731.60962-6.096.87274-9.15826m-974.029,2.102L29.38817,569.279l23.183-2.43646a6.51972,6.51972,0,0,0,5.8379-6.47736,6.51972,6.51972,0,0,1-5.8379,6.47736l-23.183,2.43646-1.36284-12.96582m973.15625,7.05621c-1.34473,12.84064-3.19635,25.6615-5.54553,38.37452q2.66674-14.45463,4.49493-29.22.56818-4.57516,1.0506-9.15455m-978.39334.04993c.08236.77442.1662,1.546.25231,2.32062q1.61784,14.83832,4.13276,29.5603-.54812-3.1668-1.05451-6.33813-1.99106-12.67182-3.33056-25.54279m-.06133.003c.33323,3.1391.6999,6.3031,1.09506,9.44428a489.183,489.183,0,0,0,12.93584,66.44671,487.93018,487.93018,0,0,1-14.0309-75.891m.31364,2.31763q1.28889,11.5958,3.14112,23.23834,2.02033,12.82425,4.68153,25.39057c-1.36183-6.36182-2.58815-12.70319-3.68989-19.06861q-2.51976-14.74622-4.13276-29.5603m976.56986,11.69c-1.08313,8.12128-2.37164,16.21466-3.85138,24.22016,1.47974-8.0055,2.76825-16.09888,3.85138-24.22016M26.1188,588.9621a488.77728,488.77728,0,0,0,14.12393,62.69836A488.77728,488.77728,0,0,1,26.1188,588.9621m.06287.01617Q28.19349,601.605,30.88133,614.265q2.69919,12.69864,6.01323,25.09253c-2.235-8.31066-4.24842-16.6596-6.03136-24.9887q-2.65825-12.57075-4.68153-25.39057m.99164,6.322A490.58138,490.58138,0,0,0,44.1092,664.09216a490.58138,490.58138,0,0,1-16.93589-68.79193M995.759,601.65009a487.46493,487.46493,0,0,1-11.97479,49.91918A487.46493,487.46493,0,0,0,995.759,601.65009m0,0q-2.47082,13.305-5.6593,26.39172,3.18732-13.09149,5.6593-26.39172m-.123.09381q-3.49869,18.93319-8.47229,37.572,4.979-18.64984,8.47229-37.572m-.54279,3.226q-2.2261,11.63709-4.99353,23.0719,2.7659-11.436,4.99353-23.0719M30.8632,614.36884a490.30961,490.30961,0,0,0,18.00124,63.61309A490.30961,490.30961,0,0,1,30.8632,614.36884m959.23653,13.673q-2.87238,11.87586-6.31549,23.52746,3.43919-11.64376,6.31549-23.52746m0,0q-3.248,13.34061-7.22687,26.44232,3.974-13.09122,7.22687-26.44232m-1.244,4.80817c-1.83886,7.29583-3.82763,14.48376-5.98291,21.63415-.97155,3.20056-1.97125,6.37653-3.00683,9.553q3.97549-12.27228,7.29773-24.72119c.57708-2.14569,1.1438-4.3114,1.692-6.46594m-952.098,6.46331c1.11015,4.14069,2.26918,8.24689,3.48492,12.34717,1.23434,4.176,2.51749,8.31293,3.85889,12.44177q-4.00683-12.31833-7.34381-24.78894m950.406.00263q-3.31934,12.43323-7.29773,24.72119-3.99839,12.26477-8.62323,24.27515,4.609-12.03974,8.58209-24.30127,3.98621-12.235,7.33887-24.69507m-950.2692.04162a493.11671,493.11671,0,0,0,22.01949,64.30719,493.11671,493.11671,0,0,1-22.01949-64.30719m946.88968,12.21173a487.77091,487.77091,0,0,1-16.26367,46.339,487.77091,487.77091,0,0,0,16.26367-46.339m0,0c-2.4743,8.3509-5.17541,16.64466-8.07886,24.81739,2.90345-8.17273,5.60456-16.46649,8.07886-24.81739m-943.54151.09119c1.23349,4.16022,2.52574,8.31482,3.86647,12.4317,1.33635,4.11835,2.7388,8.25318,4.18738,12.34351-1.45722-4.1037-2.852-8.2049-4.195-12.33344-1.3414-4.12884-2.62455-8.26574-3.85889-12.44177m942.63013,2.82367q-3.33663,11.0701-7.16748,21.90253-2.12292,5.97573-4.39776,11.88794,4.60162-12.01941,8.55841-24.23749c1.03558-3.17645,2.03528-6.35242,3.00683-9.553m-3.00683,9.553q-3.954,12.20618-8.55841,24.23749-4.63734,12.05566-9.87909,23.7951,5.22592-11.76873,9.81427-23.75744,4.62378-12.00926,8.62323-24.27515m-935.75683.05505c1.51917,4.66474,3.10039,9.28315,4.75524,13.88977C50.21636,681.7641,51.6,685.48877,53.04,689.22437q-2.46819-6.37886-4.74343-12.7887c-1.44858-4.09033-2.851-8.22516-4.18738-12.34351m-.00758.01007Q48.104,676.42157,52.73281,688.458q-4.62351-12.02545-8.63119-24.35578m931.60376,12.28443q-3.85207,10.89377-8.18481,21.5216c-1.949,4.77033-3.97839,9.52131-6.0716,14.21534q5.25843-11.82606,9.85865-23.849,2.27278-5.90837,4.39776-11.88794m-927.4088.049c1.42774,4.03149,2.89935,8.02026,4.43623,12.02234-1.53688-4.00208-3.00849-7.99085-4.43623-12.02234m.56786,1.54626c3.11007,8.65766,6.47118,17.24384,10.04961,25.6828,1.24859,2.96112,2.50662,5.864,3.80939,8.79139Q57.566,700.92889,53.04,689.22437c-1.44-3.7356-2.82365-7.46027-4.17557-11.24244M971.30762,688.2746q-4.60986,12.0411-9.85865,23.849-5.25192,11.7777-11.10241,23.23382,5.855-11.51349,11.082-23.28772,5.248-11.759,9.87909-23.7951m-.06482.03766a494.30169,494.30169,0,0,1-33.2956,69.66827,494.30169,494.30169,0,0,0,33.2956-69.66827m-918.51.14575c1.718,4.46844,3.50654,8.92309,5.35013,13.32763-1.84359-4.40454-3.6321-8.85919-5.35013-13.32763m0,0c3.50565,9.12872,7.31144,18.21606,11.38593,27.17248-4.07449-8.95642-7.88028-18.04376-11.38593-27.17248m.3072.76636c1.62216,4.20813,3.3108,8.41369,5.04293,12.56127-1.73213-4.14758-3.42077-8.35314-5.04293-12.56127m914.48056,8.68389a488.04933,488.04933,0,0,1-20.66437,44.233q7.82657-14.79155,14.59277-30.0177c2.09321-4.694,4.12256-9.445,6.0716-14.21534M58.08294,701.78564q5.01567,11.98289,10.6403,23.63959-5.62-11.6522-10.6403-23.63959m0,0q2.91728,6.9854,6.0358,13.84485-3.12131-6.86774-6.0358-13.84485m.83111,1.87909q5.64873,13.32138,12.05662,26.25428c.9467,1.92181,1.91339,3.85229,2.883,5.75732q-5.8912-11.50479-11.13022-23.22021c-1.30277-2.92737-2.5608-5.83027-3.80939-8.79139m902.51448,8.405a492.95781,492.95781,0,0,1-36.87134,67.78443,492.95781,492.95781,0,0,0,36.87134-67.78443m.02044.0539q-6.75806,15.19884-14.59277,30.0177-5.01315,9.4638-10.42706,18.687,7.3461-12.54621,13.91742-25.47083Q956.188,723.91535,961.449,712.1236m-898.72553.33252c1.93794,4.35455,3.944,8.69055,5.9998,12.96911-2.0558-4.27856-4.06186-8.61456-5.9998-12.96911m1.3953,3.17437c3.12921,6.87854,6.4074,13.66309,9.87285,20.42621-3.46545-6.76312-6.74364-13.54767-9.87285-20.42621m0,0q6.95467,15.30222,14.89418,29.99414-7.93437-14.69129-14.89418-29.99414m4.6045,9.79474Q74.80908,738.04313,81.581,750.2467q-6.77051-12.206-12.85779-24.82147m0,0c1.712,3.563,3.47615,7.12213,5.26835,10.63147-1.7922-3.50934-3.55633-7.06842-5.26835-10.63147m881.62332,9.93219a491.93314,491.93314,0,0,1-40.39417,65.78168,491.93314,491.93314,0,0,0,40.39417-65.78168m-876.4929.31891q8.562,16.72054,18.51154,32.96472,12.57884,20.53245,27.10425,39.76209,5.02748,6.66265,10.24758,13.12042c-2.912-3.59-5.73736-7.17444-8.53231-10.82336A492.254,492.254,0,0,1,81.581,750.2467q-3.9753-7.20044-7.72737-14.57037m.13793.38037c3.88419,7.58032,7.99322,15.10974,12.30065,22.52912-4.30743-7.41938-8.41646-14.9488-12.30065-22.52912m0,0q2.46157,4.82007,5.02133,9.56793-2.56074-4.7514-5.02133-9.56793m872.86461,6.0846q-7.24392,13.69043-15.39209,26.977,8.15663-13.29309,15.39209-26.977M79.01292,745.62463q6.599,12.21873,13.85048,23.994-7.24762-11.77258-13.85048-23.994m0,0a488.15434,488.15434,0,0,0,27.842,45.50843,488.15434,488.15434,0,0,1-27.842-45.50843M81.581,750.2467a492.254,492.254,0,0,0,39.60369,60.4535,491.72306,491.72306,0,0,1-34.89248-52.11438q-2.3927-4.14021-4.71121-8.33912m856.36617,7.73383q-6.40713,11.1025-13.39,21.8736-6.99234,10.75524-14.53894,21.14221a494.87982,494.87982,0,0,0,27.92895-43.01581m-851.655.60529a491.72306,491.72306,0,0,0,34.89248,52.11438q5.0801,6.63628,10.38607,13.103,6.01794,7.35589,12.26265,14.41852a491.83486,491.83486,0,0,1-50.97-68.60309q-3.35092-5.46185-6.57116-11.03277m850.1369,2.24243c-1.62982,2.78363-3.27759,5.53479-4.965,8.2901a489.2961,489.2961,0,0,1-41.20569,57.39148q1.16822-1.4079,2.32856-2.82727a490.86776,490.86776,0,0,0,43.84216-62.85431m-4.965,8.2901a488.15784,488.15784,0,0,1-60.2901,79.061q9.87845-10.57343,19.08441-21.66955a489.2961,489.2961,0,0,0,41.20569-57.39148m-838.60071.50024a491.83486,491.83486,0,0,0,50.97,68.60309q7.42528,8.39959,15.17239,16.39941a490.01617,490.01617,0,0,1-52.151-63.488q-7.259-10.54431-13.99147-21.51447m831.69379,10.23554q-7.01706,10.8217-14.6048,21.285-7.58561,10.4231-15.67712,20.40076,8.15414-10.082,15.743-20.54352,7.5347-10.37046,14.53894-21.14221M106.85487,791.13306a490.01617,490.01617,0,0,0,52.151,63.488q7.61665,7.86713,15.50885,15.3219a489.1678,489.1678,0,0,1-67.65981-78.80993m803.16338,9.86328q-7.60895,10.48746-15.743,20.54352c-5.42493,6.69091-11.04645,13.265-16.80884,19.65869a494.51055,494.51055,0,0,0,32.55182-40.20221m-.06586.14276q-8.3421,11.50113-17.36541,22.54346-6.76667,8.2467-13.861,16.16833c-.88733.99-1.79083,1.99-2.6875,2.97431q9.42408-10.387,18.23676-21.28534,8.10819-10.0005,15.67712-20.40076m-788.76767,9.5611c2.795,3.64892,5.6203,7.23339,8.53231,10.82336.61825.76489,1.23173,1.51929,1.85376,2.2796q-5.29769-6.456-10.38607-13.103m8.53231,10.82336c3.42833,4.2265,6.96592,8.44488,10.55668,12.586-3.59076-4.14112-7.12835-8.3595-10.55668-12.586m764.55824.0163q-8.80719,10.88937-18.23676,21.28534-6.92166,7.5985-14.198,14.94812,8.00692-8.11,15.62591-16.57477c5.76239-6.39368,11.38391-12.96778,16.80884-19.65869m-762.70448,2.2633q7.25867,8.84583,14.914,17.34131-7.655-8.49518-14.914-17.34131m758.68763,2.70667q-5.632,6.75632-11.53241,13.34106,5.90808-6.59226,11.53241-13.34106m-749.98471,7.59973c2.04415,2.35748,4.101,4.685,6.19779,7.01379s4.22062,4.64325,6.35148,6.92261q-3.19769-3.41647-6.33816-6.90149c-2.08711-2.31927-4.16855-4.67688-6.21111-7.03491m3.55973,4.11212q8.83524,9.955,18.19085,19.41467-9.34527-9.45144-18.19085-19.41467M878.726,839.85089c-1.10986,1.2392-2.23822,2.4867-3.36017,3.7143.21784-.2392.45533-.50043.67267-.74.89667-.98432,1.80017-1.98432,2.6875-2.97431m-732.24119,1.29358q3.133,3.4769,6.33816,6.90149c3.8333,4.10046,7.69577,8.09491,11.63588,12.03528-.81683-.81464-1.62335-1.62445-2.43457-2.44489q-7.95452-8.06433-15.53947-16.49188m730.98161.05408q-7.62,8.46459-15.62591,16.57477-6.7392,6.80575-13.80036,13.40911,15.34892-14.366,29.42627-29.98388m-1.42792,1.62665c-.21734.23956-.45483.50079-.67267.74q-9.14721,10.00807-18.83288,19.50335c1.77765-1.74688,3.557-3.52221,5.30756-5.29522q7.29218-7.36415,14.198-14.94812m-.67267.74q-9.72518,10.67659-20.0614,20.767,10.35719-10.11016,20.0614-20.767M152.823,848.046q12.36546,13.21152,25.6846,25.50433-7.15486-6.59472-14.04872-13.46905c-3.94011-3.94037-7.80258-7.93482-11.63588-12.03528m718.351.13342a488.95049,488.95049,0,0,1-80.578,69.33789,490.30337,490.30337,0,0,0,64.70843-53.18512q8.14409-7.91583,15.86957-16.15277m-712.16818,6.44171q10.2691,10.5597,21.1436,20.48066-10.85646-9.90575-21.1436-20.48066m3.01846,3.01526c.81122.82044,1.61774,1.63025,2.43457,2.44489q4.76289,4.7632,9.636,9.37994c-4.10222-3.88318-8.10678-7.80633-12.07054-11.82483m699.81623.137c-1.75055,1.773-3.52991,3.54834-5.30756,5.29522q-10.67469,10.46457-21.92774,20.23523,6.82088-5.93179,13.43494-12.12134,7.05515-6.59546,13.80036-13.40911m-697.38166,2.30792q6.894,6.87543,14.04872,13.46905,10.75716,9.92817,22.07283,19.19336-9.72163-7.9411-19.01605-16.356c-2.50787-2.278-5.01044-4.59876-7.46953-6.92652q-4.86321-4.60712-9.636-9.37994m692.0741,2.9873q-8.3616,8.21677-17.11163,16.03449,8.75326-7.82016,17.11163-16.03449m-1.22852,1.26361A490.30337,490.30337,0,0,1,790.596,917.51727q-10.06806,6.91095-20.53082,13.34711A491.60682,491.60682,0,0,0,839.42133,879.103q8.13372-7.23752,15.88311-14.77088m-681.20961,5.129c1.99971,1.89435,4.03014,3.78583,6.0546,5.64057-2.02446-1.85474-4.05489-3.74622-6.0546-5.64057m.41985.48181q10.36991,9.76026,21.27681,18.89283a489.26716,489.26716,0,0,0,56.55026,41.05889A488.47279,488.47279,0,0,1,174.51468,869.943m673.52548,1.23944q-6.59737,6.17487-13.43494,12.12134-3.41144,2.96238-6.88085,5.8664,6.76921-5.67417,13.399-11.64167,3.49311-3.14529,6.91681-6.34607m-669.53258,2.36786a494.57631,494.57631,0,0,0,45.35659,37.08734q-11.88568-8.58627-23.28376-17.894-11.33453-9.28143-22.07283-19.19336m1.64185,1.55146q7.70853,7.06237,15.64206,13.73407-7.93884-6.67887-15.64206-13.73407m0,0c.46658.42572.94678.86206,1.41493,1.28595-.46815-.42389-.94835-.86023-1.41493-1.28595m1.41493,1.28595q9.3174,8.43612,19.01605,16.356,9.67452,7.92206,19.754,15.35761-10.18405-7.48609-19.99188-15.50025-9.607-7.88131-18.7782-16.21331m657.857,2.71533a491.60682,491.60682,0,0,1-69.35614,51.76135c-3.97651,2.4455-7.97474,4.8266-12.0362,7.16638a491.80929,491.80929,0,0,0,52.77564-35.29541c4.37433-3.35052,8.724-6.79919,12.98077-10.29156,5.33533-4.364,10.52887-8.79645,15.63593-13.34076m-4.81611,4.20074c-3.57281,3.10718-7.15759,6.13544-10.81982,9.14,3.66223-3.00458,7.247-6.03284,10.81982-9.14m-638.81373,5.53205c1.51521,1.26916,3.02148,2.515,4.55107,3.76519a491.08634,491.08634,0,0,0,63.47684,44.20343q-5.773-3.36914-11.47765-6.90973a489.26716,489.26716,0,0,1-56.55026-41.05889m631.93288.33435q-3.08213,2.58353-6.19147,5.10522,3.1126-2.52476,6.19147-5.10522m-3.939,3.27362c-4.25677,3.49237-8.60644,6.941-12.98077,10.29156q5.41424-4.14972,10.72827-8.46,1.1283-.91187,2.2525-1.8316m-623.205.29986q11.36576,9.28409,23.28376,17.894,9.39669,6.79652,19.122,13.15918-11.537-7.52673-22.65175-15.69555-10.07526-7.431-19.754-15.35761m620.95249,1.53174q-5.32764,4.32156-10.72827,8.46a492.424,492.424,0,0,1-61.10346,39.98578c-4.6225,2.54437-9.277,5.00977-14.00384,7.41553q11.78375-6.03406,23.3247-12.753A493.94226,493.94226,0,0,0,815.168,899.335q3.20765-2.50727,6.36493-5.05957m-10.72827,8.46A491.80929,491.80929,0,0,1,758.029,938.03076c-2.749,1.58368-5.54028,3.156-8.32782,4.69037a492.424,492.424,0,0,0,61.10346-39.98578m-590.47019,5.36591a491.88347,491.88347,0,0,0,66.69025,41.41552,491.88347,491.88347,0,0,1-66.69025-41.41552m3.52973,2.53637q18.94982,13.68962,39.114,25.53443c-6.74826-3.95917-13.43443-8.097-19.992-12.37525q-9.71174-6.35265-19.122-13.15918M790.596,917.51727a489.0171,489.0171,0,0,1-43.92572,26.90595A489.0171,489.0171,0,0,0,790.596,917.51727m-547.60982,6.27954a493.17836,493.17836,0,0,0,68.74571,37.54041,493.17836,493.17836,0,0,1-68.74571-37.54041m9.35556,6.0979q17.4356,10.84579,35.55623,20.10291-18.11843-9.26568-35.55623-20.10291m517.72344.96967q-11.4864,7.088-23.3949,13.55884,11.9122-6.4704,23.3949-13.55884m-507.087,5.30768a493.81809,493.81809,0,0,0,72.26566,34.8977,493.81809,493.81809,0,0,1-72.26566-34.8977m.84119.63238q11.46533,6.69114,23.20529,12.71234c8.053,4.14887,16.27179,8.09943,24.57583,11.80909q-11.973-5.33195-23.70254-11.32825-12.26065-6.27621-24.07858-13.19318M758.029,938.03076q-11.15578,6.45777-22.54046,12.26856,11.39748-5.82055,22.54046-12.26856m-8.32782,4.69037q-12.19482,6.74469-24.81164,12.8136,12.60489-6.0618,24.81164-12.8136m-3.03088,1.70209q-16.62378,9.02957-34.05622,16.81848,17.40675-7.76954,34.05622-16.81848m0,0c-3.70331,2.00793-7.41571,3.9588-11.18176,5.8761,3.76605-1.9173,7.47845-3.86817,11.18176-5.8761m-459.6456,5.09356q12.19876,6.26038,24.70721,11.82044,12.32817,5.509,24.98435,10.3482-12.68019-4.8229-25.11573-10.35955c-8.304-3.70966-16.52282-7.66022-24.57583-11.80909m.87329.48084q11.72365,5.99542,23.70254,11.32825c4.0525,1.81036,8.09592,3.55114,12.20551,5.25415q-18.349-7.5879-35.908-16.5824m447.79935.139q-11.35456,5.81433-22.92768,11.001c-2.59131,1.15533-5.17639,2.281-7.79425,3.39392q13.34527-5.705,26.30963-12.17688c1.47089-.73017,2.95124-1.47449,4.4123-2.21808m-.2088.16266q-11.33415,5.78823-22.87446,10.94238,11.548-5.15937,22.87446-10.94238m0,0c-3.51221,1.78808-7.03309,3.52765-10.599,5.23541,3.56591-1.70776,7.08679-3.44733,10.599-5.23541m-10.599,5.23541q-12.1637,5.84967-24.69043,11.04315,12.52276-5.19095,24.69043-11.04315m0,0c-3.99549,1.91357-8.05823,3.79205-12.11988,5.603,4.06165-1.81092,8.12439-3.6894,12.11988-5.603m-12.11988,5.603c-7.66864,3.43737-15.36334,6.65112-23.14331,9.66845-3.4978,1.35187-6.98626,2.65412-10.525,3.92877q13.10459-4.74279,25.874-10.2033c2.61786-1.11292,5.20294-2.23859,7.79425-3.39392m-.15558.104q-12.3022,5.49627-24.83837,10.28723,12.51563-4.78426,24.83837-10.28723m0,0q-6.16131,2.75005-12.415,5.33618,6.25479-2.58654,12.415-5.33618m-401.01355.08417q12.44253,5.541,25.11573,10.35955c3.6817,1.40735,7.39975,2.7771,11.12054,4.09736q-12.177-4.29913-24.03076-9.20276c-4.10959-1.703-8.153-3.44379-12.20551-5.25415m.13138.01135q11.63939,5.175,23.512,9.73254,12.50106,4.82658,25.2995,8.98365c-7.99289-2.57837-15.95365-5.37336-23.82712-8.368q-12.65406-4.83728-24.98435-10.3482m393.2435,3.1944A492.9305,492.9305,0,0,1,639.53918,987.057a492.9305,492.9305,0,0,0,65.43622-22.52533m-4.7763,2.04626c-4.12378,1.70941-8.2439,3.3515-12.4234,4.951,4.1795-1.59955,8.29962-3.24164,12.4234-4.951m0,0q-5.24882,2.17062-10.57276,4.22827,5.31309-2.05344,10.57276-4.22827M323.806,966.58a488.69792,488.69792,0,0,0,50.27182,17.68756A488.69792,488.69792,0,0,1,323.806,966.58M512,968.12585a6.51875,6.51875,0,0,1,6.51868,6.51862v0a6.51868,6.51868,0,0,0-13.03736,0A6.51875,6.51875,0,0,1,512,968.12585m177.62634,2.6803c-3.79406,1.47144-7.62384,2.90241-11.44159,4.27442q-6.1072,2.18921-12.25573,4.21057,6.63115-2.18829,13.17236-4.55622c3.5387-1.27465,7.02716-2.5769,10.525-3.92877m-354.38247.26361q12.42442,4.771,25.04745,8.85053,12.589,4.09368,25.39264,7.509-12.663-3.35129-25.14059-7.37585-12.77806-4.14845-25.2995-8.98365m352.53183.45917q-9.55729,3.65772-19.298,6.92523,9.74351-3.26678,19.298-6.92523m0,0q-4.77824,1.82657-9.591,3.55164,4.80634-1.72293,9.591-3.55164m-351.05945.15649c7.87347,2.99463,15.83423,5.78962,23.82712,8.368,3.03085.98394,6.0614,1.9353,9.1141,2.86108q-11.02565-3.3198-21.82068-7.13171c-3.72079-1.32026-7.43884-2.69-11.12054-4.09736m168.76507,2.959v23.31085h0V974.64447m173.62006.09045a490.80978,490.80978,0,0,1-64.437,18.33954,490.80978,490.80978,0,0,0,64.437-18.33954m-.91663.34565c-3.22357,1.15844-6.46783,2.28589-9.70709,3.37359q-7.08417,2.37516-14.26105,4.54,5.89134-1.78125,11.71241-3.703,6.14941-2.022,12.25573-4.21057m-330.348.70221c8.65747,3.0719,17.38434,5.89477,26.24106,8.4848-8.85672-2.59-17.58359-5.4129-26.24106-8.4848m320.64087,2.67138q-14.48712,4.86467-29.16125,8.78907c4.98693-1.337,9.972-2.7591,14.9002-4.24909q7.17821-2.16422,14.26105-4.54m-2.54864.837a490.64417,490.64417,0,0,1-70.16455,17.45624A490.64417,490.64417,0,0,0,665.929,979.29114m-305.38565.76227q12.49722,4.03125,25.14059,7.37585c2.01288.53687,4.06522,1.07019,6.08585,1.58167-7.45612-1.86915-14.80783-3.8971-22.11234-6.09644-3.0527-.92578-6.08325-1.87714-9.1141-2.86108m9.1141,2.86108q13.31484,4.03774,26.90167,7.33014-13.57238-3.28665-26.90167-7.33014m284.55914.07965A489.264,489.264,0,0,1,589.467,997.80157a489.264,489.264,0,0,0,64.74957-14.80743m-280.13876,1.27344q11.13775,3.24756,22.48129,5.97705-11.34887-2.72964-22.48129-5.97705m0,0a488.92763,488.92763,0,0,0,48.19147,11.47589,488.92763,488.92763,0,0,1-48.19147-11.47589M639.53918,987.057q-12.4182,3.345-24.87481,6.01751c-8.45752,1.79456-16.95813,3.36719-25.58795,4.72846q12.57824-2.00666,25.18859-4.68427,12.796-2.71984,25.27417-6.0617m-.22277.18628a487.824,487.824,0,0,1-75.54956,13.9942c3.10742-.33173,6.19256-.69135,9.302-1.08374a488.963,488.963,0,0,0,66.24756-12.91046m-253.63245.186c12.05148,3.18958,24.23724,5.92371,36.46536,8.18683-12.22812-2.26312-24.41388-4.99725-36.46536-8.18683m6.08585,1.58167q14.98255,3.75594,30.37951,6.60516,19.45451,3.60059,39.10446,5.63025c7.39927.77008,14.8494,1.37518,22.28061,1.81085a492.56818,492.56818,0,0,1-63.85833-7.84082q-14.07455-2.70273-27.90625-6.20544m4.78933,1.2337q11.46465,2.75757,23.11692,4.97174-11.6662-2.21513-23.11692-4.97174m0,0q12.75664,3.08917,25.71018,5.49884-12.95907-2.40921-25.71018-5.49884m218.10523,2.82983q-9.44742,2.02816-18.8999,3.67292-14.88144,2.55724-29.873,4.19567,11.57181-1.2897,23.18494-3.14013c8.62982-1.36127,17.13043-2.9339,25.58795-4.72846m-194.98831,2.14191a492.56818,492.56818,0,0,0,63.85833,7.84082q8.33712.48889,16.67832.69421c3.943.09912,7.86233.15033,11.78851.15516-.1947.00024-.40588.00036-.60052.00036a490.5013,490.5013,0,0,1-64.60193-4.26642c-9.08747-1.22247-18.1503-2.70111-27.12271-4.42413m2.47326.39972q15.03068,2.77616,30.38782,4.6449c2.91364.35577,5.79672.68145,8.71664.98535q-19.65312-2.0322-39.10446-5.63025m.12.12738c8.1289,1.50494,16.28119,2.801,24.52945,3.897-8.24826-1.096-16.40055-2.39209-24.52945-3.897m0,0a488.56214,488.56214,0,0,0,51.42154,6.75848,488.56214,488.56214,0,0,1-51.42154-6.75848m173.49515,1.00391c-2.11121.36755-4.18628.715-6.29743,1.05419q-12.834,2.03075-25.87006,3.39173c.77442-.08264,1.51978-.16394,2.2945-.25025q14.97574-1.63851,29.873-4.19567m-6.29743,1.05419c-5.46045.87726-10.94079,1.6634-16.39819,2.35212q-14.42918,1.791-28.88874,2.72369,9.69261-.6471,19.41687-1.68408,13.04526-1.35993,25.87006-3.39173m-.39062.00135q-11.607,1.85174-23.18494,3.14013c-4.83881.52942-9.66705.98511-14.51538,1.37091-4.46863.35383-8.98548.65-13.48694.88355q12.71906-.68088,25.525-2.02484c8.624-.90643,17.19428-2.034,25.66224-3.36975M446.79877,999.6405a490.5013,490.5013,0,0,0,64.60193,4.26642c.19464,0,.40582-.00012.60052-.00036.19464.00024.40344.00036.59808.00036q12.676,0,25.22718-.64642-13.19431.70908-26.3169.70764-19.033,0-37.81872-1.46619-13.51484-1.062-26.89209-2.86145m119.09271,1.30255c-.77472.08631-1.52008.16761-2.2945.25025-4.066.42383-8.126.79651-12.22088,1.12066,4.84833-.3858,9.67657-.84149,14.51538-1.37091m-2.2945.25025q-9.72821,1.03756-19.41687,1.68408-14.92894.96313-29.86242,1.02094,10.32714-.06071,20.72333-.55646c5.4541-.25244,10.88842-.59442,16.33508-1.0279,4.09491-.32415,8.15484-.69683,12.22088-1.12066m.16987.04413A488.623,488.623,0,0,1,511.90039,1004q-19.20543,0-38.20953-1.49805,18.78254,1.45991,37.81872,1.46619,13.10313,0,26.3169-.70764,13.051-.66916,25.94037-2.02307m-102.51307.00891c2.8895.29876,5.78937.57281,8.68329.82068-2.89392-.24787-5.79379-.52192-8.68329-.82068m8.68329.82068q16.37586,1.40231,32.8237,1.71508-8.17131-.15042-16.27371-.56518-8.24931-.43588-16.55-1.1499m81.439.24694c-5.44666.43348-10.881.77546-16.33508,1.0279q1.42281-.068,2.84814-.14435c4.50146-.23352,9.01831-.52972,13.48694-.88355m-7.196.56342c-2.12176.14166-4.23486.26923-6.35363.38312,2.11877-.11389,4.23187-.24146,6.35363-.38312m-60.64572.17981c.98081.056,1.97034.1095,2.95267.15973-.98233-.05023-1.97186-.10376-2.95267-.15973m54.35477.14032q-1.42419.07626-2.84814.14435-11.43065.529-22.88245.52954-4.70325,0-9.3978-.0893,4.60562.08478,9.23923.08509,13.03207,0,25.88916-.66968m-51.4021.01941q8.10429.414,16.27371.56518,4.70169.08946,9.3978.0893,11.4354,0,22.88245-.52954-10.40158.497-20.72333.55646c-.63153.00238-1.28205.00372-1.91352.00372q-6.0992,0-12.19146-.15064-6.84321-.17193-13.72565-.53448m27.83063.6814c-.77942.00457-1.53778.00738-2.31647.00824.77869-.00086,1.53705-.00367,2.31647-.00824M512.09967,10A505.89,505.89,0,0,0,382.10016,27.09617c-10.02127,2.68145-20.10352,5.72257-29.967,9.03883-6.49616,2.18182-13.0318,4.52843-19.42694,6.97528l-.07773.02972-.00015.00008,0-.00008-.00364.0014,0-.00007-.14581.05587c-8.44888,3.23368-16.91177,6.74051-25.15634,10.424-11.74173,5.23955-23.43961,11.01645-34.76944,17.17027l-.00006-.0001-.0065.00351v0l-.0267.0145a500.1999,500.1999,0,0,0-44.76694,27.42314l-.01753.012-.04415.03036A499.77259,499.77259,0,0,0,145.57285,168.936l0,0a499.52134,499.52134,0,0,0-61.6235,80.81884c-5.43782,8.86845-10.66485,18.0272-15.53549,27.22133h0a500.30848,500.30848,0,0,0-21.20172,45.35855l-.00011-.00006c-6.26918,15.348-11.83109,31.1867-16.53109,47.07525l-.02574.08676,0,.00019,0,0A499.9807,499.9807,0,0,0,18.406,420.54028l-.00853.0459-.0015.00833v-.00018l-.0259.14038a500.08719,500.08719,0,0,0-6.82893,52.01163l-.00059.00754A504.067,504.067,0,0,0,27.099,641.903c2.23446,8.3471,4.71856,16.74292,7.386,24.96258l.106.32672.08731.26813c2.66024,8.17285,5.5682,16.37659,8.646,24.39184l.07319.19074c3.57723,9.315,7.48594,18.64319,11.61738,27.7251l0,.00006.00152.00329h0l.0211.04633c4.669,10.27026,9.75506,20.5141,15.118,30.44983l.05453.1012.00015.00006L70.21,750.369a500.16316,500.16316,0,0,0,28.3876,46.40484l.0204.02967A503.82147,503.82147,0,0,0,247.06683,938.39032c11.74591,7.30627,23.95108,14.20666,36.278,20.51068,11.90478,6.09387,24.20511,11.77545,36.55865,16.88641l.07419.03077a500.436,500.436,0,0,0,51.16025,18.0086l.13293.03888.00019-.00006,0,.00006a500.55208,500.55208,0,0,0,49.13791,11.70325l.03259.0061a500.402,500.402,0,0,0,52.47433,6.897c12.90628,1.01386,26.02335,1.528,38.9845,1.528a500.63319,500.63319,0,0,0,52.90832-2.81689v.00006A499.65438,499.65438,0,0,0,641.90619,996.902c9.94177-2.66132,19.92139-5.66809,29.66235-8.937l.08814-.02954.10852-.03644c6.4895-2.17749,13.03125-4.5249,19.44824-6.97864l.13324-.0509.00311-.00122.00006.00006.16468-.063c8.43347-3.22724,16.89386-6.73261,25.15-10.42066l.02527-.01129.00317-.0014v.00006l.20081-.08978c11.67773-5.21875,23.29834-10.96057,34.543-17.06818l.00006.00012.00647-.00354.00006.00006.02685-.01465a500.66578,500.66578,0,0,0,44.79126-27.43835l.04395-.03021A503.71536,503.71536,0,0,0,939.992,774.34119l.05274-.08637c5.47723-8.9306,10.74139-18.15936,15.64825-27.43249h0c7.73767-14.60749,14.83271-29.7945,21.08783-45.13916a500.00445,500.00445,0,0,0,16.58124-47.23908l.01013-.03412v.00019a502.96484,502.96484,0,0,0,3.52112-272.34183c-2.24231-8.37628-4.73944-16.81085-7.4223-25.06983-2.71381-8.3663-5.69361-16.781-8.8562-25.00949l-.06714-.17462c-3.55707-9.25488-7.43714-18.51251-11.53467-27.52115l-.01251-.02758.00018.00018c-4.69574-10.3345-9.81622-20.647-15.22064-30.65344l-.015-.0279a500.07,500.07,0,0,0-28.37274-46.3731l.00006-.00007A503.82,503.82,0,0,0,776.93115,85.60854v0C765.215,78.32217,753.053,71.44383,740.78333,65.16467c-11.9676-6.13021-24.33313-11.843-36.74988-16.97821l-.00513-.00213h.00018a499.95591,499.95591,0,0,0-51.20233-18.02166H652.826l-.01422-.00415a500.13648,500.13648,0,0,0-49.34058-11.74985l-.13519-.025a500.00594,500.00594,0,0,0-52.24451-6.855C538.18158,10.51433,525.06232,10,512.09967,10Z"/></g><g id="f7565431-9705-41f1-ae84-c2ea32f523e4" data-name="レイヤー 2"><path class="a47202ec-30e5-411a-ba94-6c0b2701aa76" d="M512,15c274.48553,0,497,222.51447,497,497s-222.51447,497-497,497S15,786.48553,15,512,237.51447,15,512,15m0-10A507.13118,507.13118,0,0,0,314.64969,979.15338,507.12872,507.12872,0,0,0,709.35028,44.84661,503.83458,503.83458,0,0,0,512,5Z"/><rect class="a47202ec-30e5-411a-ba94-6c0b2701aa76" x="494" y="18" width="34" height="104" rx="11.01708"/><rect class="a47202ec-30e5-411a-ba94-6c0b2701aa76" x="273.13397" y="77.71677" width="34" height="104" rx="11.01708" transform="translate(-25.9878 162.44574) rotate(-30)"/><rect class="a47202ec-30e5-411a-ba94-6c0b2701aa76" x="111.71677" y="239.86603" width="34" height="104" rx="11.01708" transform="translate(-188.40501 257.40501) rotate(-60)"/><rect class="a47202ec-30e5-411a-ba94-6c0b2701aa76" x="18" y="496" width="104" height="34" rx="11.01708"/><rect class="a47202ec-30e5-411a-ba94-6c0b2701aa76" x="77.71677" y="716.86603" width="104" height="34" rx="11.01708" transform="translate(-349.55426 163.17779) rotate(-30)"/><rect class="a47202ec-30e5-411a-ba94-6c0b2701aa76" x="239.86603" y="878.28323" width="104" height="34" rx="11.01708" transform="matrix(0.5, -0.86603, 0.86603, 0.5, -629.40501, 700.40501)"/><rect class="a47202ec-30e5-411a-ba94-6c0b2701aa76" x="496" y="902" width="34" height="104" rx="11.01708"/><rect class="a47202ec-30e5-411a-ba94-6c0b2701aa76" x="716.86603" y="842.28323" width="34" height="104" rx="11.01708" transform="translate(-348.82221 486.74425) rotate(-30)"/><rect class="a47202ec-30e5-411a-ba94-6c0b2701aa76" x="878.28323" y="680.13397" width="34" height="104" rx="11.01708" transform="translate(-186.40501 1141.40501) rotate(-60)"/><rect class="a47202ec-30e5-411a-ba94-6c0b2701aa76" x="902" y="494" width="104" height="34" rx="11.01708"/><rect class="a47202ec-30e5-411a-ba94-6c0b2701aa76" x="842.28323" y="273.13397" width="104" height="34" rx="11.01708" transform="translate(-25.25575 486.0122) rotate(-30)"/><rect class="a47202ec-30e5-411a-ba94-6c0b2701aa76" x="680.13397" y="111.71677" width="104" height="34" rx="11.01708" transform="translate(254.59499 698.40501) rotate(-60)"/></g><g id="a1e9ef56-083f-4524-9b40-bc8bbe79a6a6" data-name="レイヤー 3"><path d="M482.06055,148.70166h-.2041l-11.52637,6.22266-1.73438-6.83448,14.48438-7.75244h7.54883v66.30322h-8.56836Z"/><path d="M514.7998,206.64062v-5.5083l7.14063-6.73242c16.83008-16.1167,24.583-24.78711,24.68457-34.78369,0-6.73242-3.26367-13.05664-13.1582-13.05664-6.01856,0-11.0166,3.16211-14.07715,5.7124l-2.85547-6.32422a29.08966,29.08966,0,0,1,18.76855-6.73242c14.28028,0,20.19727,9.79248,20.19727,19.27881,0,12.24072-8.875,22.13525-22.74707,35.6001l-5.30469,4.998v.2041h29.6836v7.34423Z"/><path d="M680.42676,183.70166h-.2041l-11.52637,6.22266-1.73438-6.83448,14.48438-7.75244h7.54883v66.30322h-8.56836Z"/><path d="M795.8418,361.64062v-5.5083l7.14062-6.73242c16.83008-16.1167,24.583-24.78711,24.68457-34.78369,0-6.73242-3.26367-13.05664-13.1582-13.05664-6.01856,0-11.0166,3.16211-14.07715,5.7124l-2.85547-6.32422a29.08971,29.08971,0,0,1,18.76856-6.73242c14.28027,0,20.19726,9.79248,20.19726,19.27881,0,12.24072-8.875,22.13525-22.74707,35.6001l-5.30469,4.998v.2041h29.6836v7.34423Z"/><path d="M841.08594,536.666a29.64958,29.64958,0,0,0,14.68847,4.18261c11.52637,0,15.09668-7.34472,14.99512-12.85351-.10254-9.28223-8.4668-13.25977-17.13672-13.25977h-4.998v-6.73242h4.998c6.52832,0,14.79-3.36621,14.79-11.2207,0-5.30469-3.36621-9.99707-11.62793-9.99707a24.35332,24.35332,0,0,0-13.26074,4.38672l-2.34668-6.52833c3.46875-2.5498,10.20117-5.10058,17.34082-5.10058,13.05664,0,19.0752,7.75293,19.0752,15.81055,0,6.93652-4.18164,12.64941-12.34278,15.709v.2041c8.16114,1.53028,14.791,7.65039,14.791,16.93262,0,10.60937-8.36426,19.8916-24.17481,19.8916-7.44726,0-13.97461-2.34668-17.23925-4.59082Z"/><path d="M813.68945,718.64062V700.58594H782.88379v-5.916l29.58105-42.332h9.69043v41.31152h9.28223v6.93653h-9.28223v18.05468Zm0-24.99121v-22.2373q0-5.20165.30567-10.4043l-.30567-.10156c-2.04,3.97754-3.67285,6.834-5.50879,9.89453l-16.21875,22.64453v.2041Z"/><path d="M697.52148,783.88574H672.22461l-2.55078,17.03418a35.59556,35.59556,0,0,1,5.40722-.40722,28.03125,28.03125,0,0,1,14.28028,3.56933,19.22413,19.22413,0,0,1,9.48633,17.03516c0,12.95508-10.30274,22.64551-24.68555,22.64551-7.24219,0-13.36231-2.04-16.52441-4.08008l2.24414-6.835a29.79117,29.79117,0,0,0,14.28027,3.67285c8.36523,0,15.60742-5.50879,15.60742-14.38281,0-8.56836-5.81445-14.68848-19.07519-14.68848a68.65351,68.65351,0,0,0-9.18067.71387l4.28516-31.8252h31.72265Z"/><path d="M520.42773,830.66211a33.29767,33.29767,0,0,0-6.73242.50977c-14.07666,2.24414-21.52295,12.54687-23.05322,23.5625h.2041a19.53958,19.53958,0,0,1,16.11719-7.85352c11.73,0,19.99365,8.56836,19.99365,21.52246,0,12.13867-8.26367,23.35938-22.13623,23.35938-14.07666,0-23.35889-11.01661-23.35889-28.25489,0-12.95508,4.59034-23.35937,11.22022-29.88867a36.09794,36.09794,0,0,1,21.21826-9.792,32.39882,32.39882,0,0,1,6.52734-.50977ZM517.877,868.91406c0-9.48633-5.40576-15.19922-13.66845-15.19922a14.92693,14.92693,0,0,0-12.95411,8.16016,8.68707,8.68707,0,0,0-.918,3.87695c.20361,11.01563,5.20214,19.17578,14.58691,19.17578C512.67529,884.92773,517.877,878.40039,517.877,868.91406Z"/><path d="M346.99023,775.33789v5.916l-28.86816,60.38671h-9.28223l28.76563-58.65234v-.20508H305.168v-7.44531Z"/><path d="M197.12793,704.80957c0-8.26269,4.99805-14.17871,13.05664-17.749v-.40821c-7.34473-3.36523-10.60889-9.07812-10.60889-14.79,0-10.40527,8.977-17.64746,20.605-17.64746,12.85254,0,19.2793,8.0586,19.2793,16.32129,0,5.61035-2.75391,11.62793-10.915,15.50489v.30566c8.2627,3.16309,13.36328,9.18066,13.36328,17.1377,0,11.62792-9.89453,19.27832-22.6455,19.27832C205.49219,722.7627,197.12793,714.5,197.12793,704.80957Zm35.70117-.40723c0-7.957-5.61035-11.93554-14.58594-14.38281-7.75293,2.1416-11.935,7.34375-11.935,13.668-.30616,6.63086,4.79443,12.54688,13.26025,12.54688C227.627,716.23438,232.8291,711.23633,232.8291,704.40234ZM208.14453,671.25c-.10254,6.63086,4.99805,10.20117,12.64844,12.24023,5.71191-1.9375,9.99609-6.01757,9.99609-12.03613,0-5.30371-3.05957-10.8125-11.2207-10.8125C212.22461,660.6416,208.14453,665.53809,208.14453,671.25Z"/><path d="M152.146,532.64453a37.40947,37.40947,0,0,0,7.24267-.30664,25.32894,25.32894,0,0,0,13.87207-6.42578c4.38672-3.97852,7.54883-9.793,8.77246-17.64746h-.30566c-3.77442,4.59082-8.97656,7.14062-15.709,7.14062-11.83251,0-19.48291-8.97656-19.48291-20.29882,0-12.54688,9.07862-23.56348,22.645-23.56348s21.93164,11.0166,21.93164,27.94922c0,14.58691-4.89648,24.78808-11.4248,31.1123a33.15059,33.15059,0,0,1-19.2793,8.874,42.17972,42.17972,0,0,1-8.2622.50976Zm3.26416-38.04785c0,8.16016,4.998,14.07617,12.85254,14.07617a14.86138,14.86138,0,0,0,12.95507-7.03808,6.5568,6.5568,0,0,0,.918-3.26465c0-11.32227-4.28418-19.99219-13.66894-19.99219C160.81641,478.37793,155.41016,485.11035,155.41016,494.59668Z"/><path d="M187.42676,321.70166h-.2041l-11.52637,6.22266-1.73438-6.83448,14.48438-7.75244h7.54883v66.30322h-8.56836Z"/><path d="M264.334,345.7749c0,22.543-8.36425,34.9878-23.05273,34.9878-12.95508,0-21.72754-12.13868-21.93164-34.06983,0-22.23682,9.58887-34.47754,23.05371-34.47754C256.37793,312.21533,264.334,324.66016,264.334,345.7749Zm-36.00781,1.02c0,17.23877,5.30469,27.03125,13.46485,27.03125,9.18066,0,13.5664-10.71045,13.5664-27.64306,0-16.32081-4.18164-26.9292-13.46484-26.9292C234.03906,319.25391,228.32617,328.74023,228.32617,346.79492Z"/><path d="M306.42676,186.70166h-.2041l-11.52637,6.22266-1.73438-6.83448,14.48438-7.75244h7.54883v66.30322h-8.56836Z"/><path d="M358.751,186.70166h-.2041l-11.52637,6.22266-1.73438-6.83448,14.48438-7.75244h7.54883v66.30322H358.751Z"/></g></svg>